<svg width="1440" height="1631" viewBox="0 0 1440 1631" fill="none" xmlns="http://www.w3.org/2000/svg">
<rect width="1440" height="1631" fill="white"/>
<rect x="279.5" y="237.5" width="142" height="126" fill="#FF0000"/>
<path d="M307.923 294.387V291.091H323.453V294.387H317.664V310H313.712V294.387H307.923ZM326.011 310V291.091H338.752V294.387H330.009V298.893H338.097V302.189H330.009V306.704H338.789V310H326.011ZM352.188 296.529C352.115 295.784 351.798 295.206 351.237 294.793C350.677 294.381 349.917 294.175 348.957 294.175C348.304 294.175 347.753 294.267 347.304 294.452C346.855 294.63 346.51 294.879 346.27 295.2C346.036 295.52 345.919 295.883 345.919 296.289C345.907 296.628 345.978 296.923 346.132 297.175C346.292 297.428 346.51 297.646 346.787 297.831C347.064 298.009 347.384 298.166 347.747 298.302C348.11 298.431 348.498 298.542 348.911 298.634L350.61 299.04C351.434 299.225 352.191 299.471 352.881 299.779C353.57 300.087 354.167 300.465 354.672 300.915C355.177 301.364 355.568 301.893 355.845 302.503C356.128 303.112 356.272 303.811 356.279 304.599C356.272 305.756 355.977 306.759 355.392 307.609C354.814 308.452 353.977 309.107 352.881 309.575C351.791 310.037 350.477 310.268 348.938 310.268C347.412 310.268 346.082 310.034 344.95 309.566C343.823 309.098 342.943 308.406 342.309 307.489C341.681 306.565 341.352 305.424 341.321 304.063H345.19C345.233 304.697 345.414 305.227 345.735 305.651C346.061 306.07 346.495 306.387 347.036 306.602C347.584 306.812 348.203 306.916 348.892 306.916C349.569 306.916 350.157 306.818 350.656 306.621C351.16 306.424 351.551 306.15 351.828 305.799C352.105 305.448 352.244 305.045 352.244 304.589C352.244 304.165 352.118 303.808 351.865 303.518C351.619 303.229 351.256 302.983 350.776 302.78C350.302 302.577 349.72 302.392 349.031 302.226L346.972 301.709C345.378 301.321 344.119 300.715 343.195 299.89C342.272 299.065 341.814 297.954 341.82 296.557C341.814 295.412 342.118 294.412 342.734 293.556C343.356 292.701 344.208 292.033 345.291 291.553C346.375 291.072 347.606 290.832 348.985 290.832C350.388 290.832 351.613 291.072 352.659 291.553C353.712 292.033 354.53 292.701 355.115 293.556C355.7 294.412 356.002 295.403 356.02 296.529H352.188ZM358.248 294.387V291.091H373.777V294.387H367.988V310H364.037V294.387H358.248ZM390.468 291.091V310H386.47V294.886H386.36L382.029 297.6V294.055L386.71 291.091H390.468Z" fill="#0080FF"/>
<rect x="279.5" y="237.5" width="142" height="126" stroke="#FF00F5" stroke-width="5"/>
<rect x="1017.5" y="235.5" width="146" height="130" fill="#FF0000"/>
<path d="M1047.92 294.387V291.091H1063.45V294.387H1057.66V310H1053.71V294.387H1047.92ZM1066.01 310V291.091H1078.75V294.387H1070.01V298.893H1078.1V302.189H1070.01V306.704H1078.79V310H1066.01ZM1092.19 296.529C1092.11 295.784 1091.8 295.206 1091.24 294.793C1090.68 294.381 1089.92 294.175 1088.96 294.175C1088.3 294.175 1087.75 294.267 1087.3 294.452C1086.85 294.63 1086.51 294.879 1086.27 295.2C1086.04 295.52 1085.92 295.883 1085.92 296.289C1085.91 296.628 1085.98 296.923 1086.13 297.175C1086.29 297.428 1086.51 297.646 1086.79 297.831C1087.06 298.009 1087.38 298.166 1087.75 298.302C1088.11 298.431 1088.5 298.542 1088.91 298.634L1090.61 299.04C1091.43 299.225 1092.19 299.471 1092.88 299.779C1093.57 300.087 1094.17 300.465 1094.67 300.915C1095.18 301.364 1095.57 301.893 1095.84 302.503C1096.13 303.112 1096.27 303.811 1096.28 304.599C1096.27 305.756 1095.98 306.759 1095.39 307.609C1094.81 308.452 1093.98 309.107 1092.88 309.575C1091.79 310.037 1090.48 310.268 1088.94 310.268C1087.41 310.268 1086.08 310.034 1084.95 309.566C1083.82 309.098 1082.94 308.406 1082.31 307.489C1081.68 306.565 1081.35 305.424 1081.32 304.063H1085.19C1085.23 304.697 1085.41 305.227 1085.73 305.651C1086.06 306.07 1086.49 306.387 1087.04 306.602C1087.58 306.812 1088.2 306.916 1088.89 306.916C1089.57 306.916 1090.16 306.818 1090.66 306.621C1091.16 306.424 1091.55 306.15 1091.83 305.799C1092.11 305.448 1092.24 305.045 1092.24 304.589C1092.24 304.165 1092.12 303.808 1091.87 303.518C1091.62 303.229 1091.26 302.983 1090.78 302.78C1090.3 302.577 1089.72 302.392 1089.03 302.226L1086.97 301.709C1085.38 301.321 1084.12 300.715 1083.2 299.89C1082.27 299.065 1081.81 297.954 1081.82 296.557C1081.81 295.412 1082.12 294.412 1082.73 293.556C1083.36 292.701 1084.21 292.033 1085.29 291.553C1086.37 291.072 1087.61 290.832 1088.98 290.832C1090.39 290.832 1091.61 291.072 1092.66 291.553C1093.71 292.033 1094.53 292.701 1095.12 293.556C1095.7 294.412 1096 295.403 1096.02 296.529H1092.19ZM1098.25 294.387V291.091H1113.78V294.387H1107.99V310H1104.04V294.387H1098.25ZM1130.47 291.091V310H1126.47V294.886H1126.36L1122.03 297.6V294.055L1126.71 291.091H1130.47Z" fill="white"/>
<rect x="1017.5" y="235.5" width="146" height="130" stroke="black"/>
<rect x="834.5" y="237.5" width="142" height="126" fill="#FF0000"/>
<path d="M862.923 294.387V291.091H878.453V294.387H872.664V310H868.712V294.387H862.923ZM881.011 310V291.091H893.752V294.387H885.009V298.893H893.097V302.189H885.009V306.704H893.789V310H881.011ZM907.188 296.529C907.115 295.784 906.798 295.206 906.237 294.793C905.677 294.381 904.917 294.175 903.957 294.175C903.304 294.175 902.753 294.267 902.304 294.452C901.855 294.63 901.51 294.879 901.27 295.2C901.036 295.52 900.919 295.883 900.919 296.289C900.907 296.628 900.978 296.923 901.132 297.175C901.292 297.428 901.51 297.646 901.787 297.831C902.064 298.009 902.384 298.166 902.747 298.302C903.11 298.431 903.498 298.542 903.911 298.634L905.61 299.04C906.434 299.225 907.191 299.471 907.881 299.779C908.57 300.087 909.167 300.465 909.672 300.915C910.177 301.364 910.568 301.893 910.845 302.503C911.128 303.112 911.272 303.811 911.279 304.599C911.272 305.756 910.977 306.759 910.392 307.609C909.814 308.452 908.977 309.107 907.881 309.575C906.791 310.037 905.477 310.268 903.938 310.268C902.412 310.268 901.082 310.034 899.95 309.566C898.823 309.098 897.943 308.406 897.309 307.489C896.681 306.565 896.352 305.424 896.321 304.063H900.19C900.233 304.697 900.414 305.227 900.735 305.651C901.061 306.07 901.495 306.387 902.036 306.602C902.584 306.812 903.203 306.916 903.892 306.916C904.569 306.916 905.157 306.818 905.656 306.621C906.16 306.424 906.551 306.15 906.828 305.799C907.105 305.448 907.244 305.045 907.244 304.589C907.244 304.165 907.118 303.808 906.865 303.518C906.619 303.229 906.256 302.983 905.776 302.78C905.302 302.577 904.72 302.392 904.031 302.226L901.972 301.709C900.378 301.321 899.119 300.715 898.195 299.89C897.272 299.065 896.814 297.954 896.82 296.557C896.814 295.412 897.118 294.412 897.734 293.556C898.356 292.701 899.208 292.033 900.291 291.553C901.375 291.072 902.606 290.832 903.985 290.832C905.388 290.832 906.613 291.072 907.659 291.553C908.712 292.033 909.53 292.701 910.115 293.556C910.7 294.412 911.002 295.403 911.02 296.529H907.188ZM913.248 294.387V291.091H928.777V294.387H922.988V310H919.037V294.387H913.248ZM945.468 291.091V310H941.47V294.886H941.36L937.029 297.6V294.055L941.71 291.091H945.468Z" fill="#A8A8A8"/>
<rect x="834.5" y="237.5" width="142" height="126" stroke="#FF00F5" stroke-width="5"/>
<rect x="647.5" y="235.5" width="146" height="130" fill="#FF0000"/>
<path d="M677.923 294.387V291.091H693.453V294.387H687.664V310H683.712V294.387H677.923ZM696.011 310V291.091H708.752V294.387H700.009V298.893H708.097V302.189H700.009V306.704H708.789V310H696.011ZM722.188 296.529C722.115 295.784 721.798 295.206 721.237 294.793C720.677 294.381 719.917 294.175 718.957 294.175C718.304 294.175 717.753 294.267 717.304 294.452C716.855 294.63 716.51 294.879 716.27 295.2C716.036 295.52 715.919 295.883 715.919 296.289C715.907 296.628 715.978 296.923 716.132 297.175C716.292 297.428 716.51 297.646 716.787 297.831C717.064 298.009 717.384 298.166 717.747 298.302C718.11 298.431 718.498 298.542 718.911 298.634L720.61 299.04C721.434 299.225 722.191 299.471 722.881 299.779C723.57 300.087 724.167 300.465 724.672 300.915C725.177 301.364 725.568 301.893 725.845 302.503C726.128 303.112 726.272 303.811 726.279 304.599C726.272 305.756 725.977 306.759 725.392 307.609C724.814 308.452 723.977 309.107 722.881 309.575C721.791 310.037 720.477 310.268 718.938 310.268C717.412 310.268 716.082 310.034 714.95 309.566C713.823 309.098 712.943 308.406 712.309 307.489C711.681 306.565 711.352 305.424 711.321 304.063H715.19C715.233 304.697 715.414 305.227 715.735 305.651C716.061 306.07 716.495 306.387 717.036 306.602C717.584 306.812 718.203 306.916 718.892 306.916C719.569 306.916 720.157 306.818 720.656 306.621C721.16 306.424 721.551 306.15 721.828 305.799C722.105 305.448 722.244 305.045 722.244 304.589C722.244 304.165 722.118 303.808 721.865 303.518C721.619 303.229 721.256 302.983 720.776 302.78C720.302 302.577 719.72 302.392 719.031 302.226L716.972 301.709C715.378 301.321 714.119 300.715 713.195 299.89C712.272 299.065 711.814 297.954 711.82 296.557C711.814 295.412 712.118 294.412 712.734 293.556C713.356 292.701 714.208 292.033 715.291 291.553C716.375 291.072 717.606 290.832 718.985 290.832C720.388 290.832 721.613 291.072 722.659 291.553C723.712 292.033 724.53 292.701 725.115 293.556C725.7 294.412 726.002 295.403 726.02 296.529H722.188ZM728.248 294.387V291.091H743.777V294.387H737.988V310H734.037V294.387H728.248ZM760.468 291.091V310H756.47V294.886H756.36L752.029 297.6V294.055L756.71 291.091H760.468Z" fill="black"/>
<rect x="647.5" y="235.5" width="146" height="130" stroke="black"/>
<rect x="462.5" y="235.5" width="146" height="130" fill="#FF0000"/>
<path d="M492.923 294.387V291.091H508.453V294.387H502.664V310H498.712V294.387H492.923ZM511.011 310V291.091H523.752V294.387H515.009V298.893H523.097V302.189H515.009V306.704H523.789V310H511.011ZM537.188 296.529C537.115 295.784 536.798 295.206 536.237 294.793C535.677 294.381 534.917 294.175 533.957 294.175C533.304 294.175 532.753 294.267 532.304 294.452C531.855 294.63 531.51 294.879 531.27 295.2C531.036 295.52 530.919 295.883 530.919 296.289C530.907 296.628 530.978 296.923 531.132 297.175C531.292 297.428 531.51 297.646 531.787 297.831C532.064 298.009 532.384 298.166 532.747 298.302C533.11 298.431 533.498 298.542 533.911 298.634L535.61 299.04C536.434 299.225 537.191 299.471 537.881 299.779C538.57 300.087 539.167 300.465 539.672 300.915C540.177 301.364 540.568 301.893 540.845 302.503C541.128 303.112 541.272 303.811 541.279 304.599C541.272 305.756 540.977 306.759 540.392 307.609C539.814 308.452 538.977 309.107 537.881 309.575C536.791 310.037 535.477 310.268 533.938 310.268C532.412 310.268 531.082 310.034 529.95 309.566C528.823 309.098 527.943 308.406 527.309 307.489C526.681 306.565 526.352 305.424 526.321 304.063H530.19C530.233 304.697 530.414 305.227 530.735 305.651C531.061 306.07 531.495 306.387 532.036 306.602C532.584 306.812 533.203 306.916 533.892 306.916C534.569 306.916 535.157 306.818 535.656 306.621C536.16 306.424 536.551 306.15 536.828 305.799C537.105 305.448 537.244 305.045 537.244 304.589C537.244 304.165 537.118 303.808 536.865 303.518C536.619 303.229 536.256 302.983 535.776 302.78C535.302 302.577 534.72 302.392 534.031 302.226L531.972 301.709C530.378 301.321 529.119 300.715 528.195 299.89C527.272 299.065 526.814 297.954 526.82 296.557C526.814 295.412 527.118 294.412 527.734 293.556C528.356 292.701 529.208 292.033 530.291 291.553C531.375 291.072 532.606 290.832 533.985 290.832C535.388 290.832 536.613 291.072 537.659 291.553C538.712 292.033 539.53 292.701 540.115 293.556C540.7 294.412 541.002 295.403 541.02 296.529H537.188ZM543.248 294.387V291.091H558.777V294.387H552.988V310H549.037V294.387H543.248ZM575.468 291.091V310H571.47V294.886H571.36L567.029 297.6V294.055L571.71 291.091H575.468Z" fill="#00FF80"/>
<rect x="462.5" y="235.5" width="146" height="130" stroke="black"/>
<rect x="277.5" y="663.5" width="146" height="130" fill="#00FF80"/>
<path d="M307.923 722.387V719.091H323.453V722.387H317.664V738H313.712V722.387H307.923ZM326.011 738V719.091H338.752V722.387H330.009V726.893H338.097V730.189H330.009V734.704H338.789V738H326.011ZM352.188 724.529C352.115 723.784 351.798 723.206 351.237 722.793C350.677 722.381 349.917 722.175 348.957 722.175C348.304 722.175 347.753 722.267 347.304 722.452C346.855 722.63 346.51 722.879 346.27 723.2C346.036 723.52 345.919 723.883 345.919 724.289C345.907 724.628 345.978 724.923 346.132 725.175C346.292 725.428 346.51 725.646 346.787 725.831C347.064 726.009 347.384 726.166 347.747 726.302C348.11 726.431 348.498 726.542 348.911 726.634L350.61 727.04C351.434 727.225 352.191 727.471 352.881 727.779C353.57 728.087 354.167 728.465 354.672 728.915C355.177 729.364 355.568 729.893 355.845 730.503C356.128 731.112 356.272 731.811 356.279 732.599C356.272 733.756 355.977 734.759 355.392 735.609C354.814 736.452 353.977 737.107 352.881 737.575C351.791 738.037 350.477 738.268 348.938 738.268C347.412 738.268 346.082 738.034 344.95 737.566C343.823 737.098 342.943 736.406 342.309 735.489C341.681 734.565 341.352 733.424 341.321 732.063H345.19C345.233 732.697 345.414 733.227 345.735 733.651C346.061 734.07 346.495 734.387 347.036 734.602C347.584 734.812 348.203 734.916 348.892 734.916C349.569 734.916 350.157 734.818 350.656 734.621C351.16 734.424 351.551 734.15 351.828 733.799C352.105 733.448 352.244 733.045 352.244 732.589C352.244 732.165 352.118 731.808 351.865 731.518C351.619 731.229 351.256 730.983 350.776 730.78C350.302 730.577 349.72 730.392 349.031 730.226L346.972 729.709C345.378 729.321 344.119 728.715 343.195 727.89C342.272 727.065 341.814 725.954 341.82 724.557C341.814 723.412 342.118 722.412 342.734 721.556C343.356 720.701 344.208 720.033 345.291 719.553C346.375 719.072 347.606 718.832 348.985 718.832C350.388 718.832 351.613 719.072 352.659 719.553C353.712 720.033 354.53 720.701 355.115 721.556C355.7 722.412 356.002 723.403 356.02 724.529H352.188ZM358.248 722.387V719.091H373.777V722.387H367.988V738H364.037V722.387H358.248ZM390.468 719.091V738H386.47V722.886H386.36L382.029 725.6V722.055L386.71 719.091H390.468Z" fill="#FF0000"/>
<rect x="277.5" y="663.5" width="146" height="130" stroke="black"/>
<rect x="1019.5" y="665.5" width="142" height="126" fill="#00FF80"/>
<path d="M1047.92 722.387V719.091H1063.45V722.387H1057.66V738H1053.71V722.387H1047.92ZM1066.01 738V719.091H1078.75V722.387H1070.01V726.893H1078.1V730.189H1070.01V734.704H1078.79V738H1066.01ZM1092.19 724.529C1092.11 723.784 1091.8 723.206 1091.24 722.793C1090.68 722.381 1089.92 722.175 1088.96 722.175C1088.3 722.175 1087.75 722.267 1087.3 722.452C1086.85 722.63 1086.51 722.879 1086.27 723.2C1086.04 723.52 1085.92 723.883 1085.92 724.289C1085.91 724.628 1085.98 724.923 1086.13 725.175C1086.29 725.428 1086.51 725.646 1086.79 725.831C1087.06 726.009 1087.38 726.166 1087.75 726.302C1088.11 726.431 1088.5 726.542 1088.91 726.634L1090.61 727.04C1091.43 727.225 1092.19 727.471 1092.88 727.779C1093.57 728.087 1094.17 728.465 1094.67 728.915C1095.18 729.364 1095.57 729.893 1095.84 730.503C1096.13 731.112 1096.27 731.811 1096.28 732.599C1096.27 733.756 1095.98 734.759 1095.39 735.609C1094.81 736.452 1093.98 737.107 1092.88 737.575C1091.79 738.037 1090.48 738.268 1088.94 738.268C1087.41 738.268 1086.08 738.034 1084.95 737.566C1083.82 737.098 1082.94 736.406 1082.31 735.489C1081.68 734.565 1081.35 733.424 1081.32 732.063H1085.19C1085.23 732.697 1085.41 733.227 1085.73 733.651C1086.06 734.07 1086.49 734.387 1087.04 734.602C1087.58 734.812 1088.2 734.916 1088.89 734.916C1089.57 734.916 1090.16 734.818 1090.66 734.621C1091.16 734.424 1091.55 734.15 1091.83 733.799C1092.11 733.448 1092.24 733.045 1092.24 732.589C1092.24 732.165 1092.12 731.808 1091.87 731.518C1091.62 731.229 1091.26 730.983 1090.78 730.78C1090.3 730.577 1089.72 730.392 1089.03 730.226L1086.97 729.709C1085.38 729.321 1084.12 728.715 1083.2 727.89C1082.27 727.065 1081.81 725.954 1081.82 724.557C1081.81 723.412 1082.12 722.412 1082.73 721.556C1083.36 720.701 1084.21 720.033 1085.29 719.553C1086.37 719.072 1087.61 718.832 1088.98 718.832C1090.39 718.832 1091.61 719.072 1092.66 719.553C1093.71 720.033 1094.53 720.701 1095.12 721.556C1095.7 722.412 1096 723.403 1096.02 724.529H1092.19ZM1098.25 722.387V719.091H1113.78V722.387H1107.99V738H1104.04V722.387H1098.25ZM1130.47 719.091V738H1126.47V722.886H1126.36L1122.03 725.6V722.055L1126.71 719.091H1130.47Z" fill="white"/>
<rect x="1019.5" y="665.5" width="142" height="126" stroke="#FF00F5" stroke-width="5"/>
<rect x="834.5" y="665.5" width="142" height="126" fill="#00FF80"/>
<path d="M862.923 722.387V719.091H878.453V722.387H872.664V738H868.712V722.387H862.923ZM881.011 738V719.091H893.752V722.387H885.009V726.893H893.097V730.189H885.009V734.704H893.789V738H881.011ZM907.188 724.529C907.115 723.784 906.798 723.206 906.237 722.793C905.677 722.381 904.917 722.175 903.957 722.175C903.304 722.175 902.753 722.267 902.304 722.452C901.855 722.63 901.51 722.879 901.27 723.2C901.036 723.52 900.919 723.883 900.919 724.289C900.907 724.628 900.978 724.923 901.132 725.175C901.292 725.428 901.51 725.646 901.787 725.831C902.064 726.009 902.384 726.166 902.747 726.302C903.11 726.431 903.498 726.542 903.911 726.634L905.61 727.04C906.434 727.225 907.191 727.471 907.881 727.779C908.57 728.087 909.167 728.465 909.672 728.915C910.177 729.364 910.568 729.893 910.845 730.503C911.128 731.112 911.272 731.811 911.279 732.599C911.272 733.756 910.977 734.759 910.392 735.609C909.814 736.452 908.977 737.107 907.881 737.575C906.791 738.037 905.477 738.268 903.938 738.268C902.412 738.268 901.082 738.034 899.95 737.566C898.823 737.098 897.943 736.406 897.309 735.489C896.681 734.565 896.352 733.424 896.321 732.063H900.19C900.233 732.697 900.414 733.227 900.735 733.651C901.061 734.07 901.495 734.387 902.036 734.602C902.584 734.812 903.203 734.916 903.892 734.916C904.569 734.916 905.157 734.818 905.656 734.621C906.16 734.424 906.551 734.15 906.828 733.799C907.105 733.448 907.244 733.045 907.244 732.589C907.244 732.165 907.118 731.808 906.865 731.518C906.619 731.229 906.256 730.983 905.776 730.78C905.302 730.577 904.72 730.392 904.031 730.226L901.972 729.709C900.378 729.321 899.119 728.715 898.195 727.89C897.272 727.065 896.814 725.954 896.82 724.557C896.814 723.412 897.118 722.412 897.734 721.556C898.356 720.701 899.208 720.033 900.291 719.553C901.375 719.072 902.606 718.832 903.985 718.832C905.388 718.832 906.613 719.072 907.659 719.553C908.712 720.033 909.53 720.701 910.115 721.556C910.7 722.412 911.002 723.403 911.02 724.529H907.188ZM913.248 722.387V719.091H928.777V722.387H922.988V738H919.037V722.387H913.248ZM945.468 719.091V738H941.47V722.886H941.36L937.029 725.6V722.055L941.71 719.091H945.468Z" fill="#A8A8A8"/>
<rect x="834.5" y="665.5" width="142" height="126" stroke="#FF00F5" stroke-width="5"/>
<rect x="647.5" y="663.5" width="146" height="130" fill="#00FF80"/>
<path d="M677.923 722.387V719.091H693.453V722.387H687.664V738H683.712V722.387H677.923ZM696.011 738V719.091H708.752V722.387H700.009V726.893H708.097V730.189H700.009V734.704H708.789V738H696.011ZM722.188 724.529C722.115 723.784 721.798 723.206 721.237 722.793C720.677 722.381 719.917 722.175 718.957 722.175C718.304 722.175 717.753 722.267 717.304 722.452C716.855 722.63 716.51 722.879 716.27 723.2C716.036 723.52 715.919 723.883 715.919 724.289C715.907 724.628 715.978 724.923 716.132 725.175C716.292 725.428 716.51 725.646 716.787 725.831C717.064 726.009 717.384 726.166 717.747 726.302C718.11 726.431 718.498 726.542 718.911 726.634L720.61 727.04C721.434 727.225 722.191 727.471 722.881 727.779C723.57 728.087 724.167 728.465 724.672 728.915C725.177 729.364 725.568 729.893 725.845 730.503C726.128 731.112 726.272 731.811 726.279 732.599C726.272 733.756 725.977 734.759 725.392 735.609C724.814 736.452 723.977 737.107 722.881 737.575C721.791 738.037 720.477 738.268 718.938 738.268C717.412 738.268 716.082 738.034 714.95 737.566C713.823 737.098 712.943 736.406 712.309 735.489C711.681 734.565 711.352 733.424 711.321 732.063H715.19C715.233 732.697 715.414 733.227 715.735 733.651C716.061 734.07 716.495 734.387 717.036 734.602C717.584 734.812 718.203 734.916 718.892 734.916C719.569 734.916 720.157 734.818 720.656 734.621C721.16 734.424 721.551 734.15 721.828 733.799C722.105 733.448 722.244 733.045 722.244 732.589C722.244 732.165 722.118 731.808 721.865 731.518C721.619 731.229 721.256 730.983 720.776 730.78C720.302 730.577 719.72 730.392 719.031 730.226L716.972 729.709C715.378 729.321 714.119 728.715 713.195 727.89C712.272 727.065 711.814 725.954 711.82 724.557C711.814 723.412 712.118 722.412 712.734 721.556C713.356 720.701 714.208 720.033 715.291 719.553C716.375 719.072 717.606 718.832 718.985 718.832C720.388 718.832 721.613 719.072 722.659 719.553C723.712 720.033 724.53 720.701 725.115 721.556C725.7 722.412 726.002 723.403 726.02 724.529H722.188ZM728.248 722.387V719.091H743.777V722.387H737.988V738H734.037V722.387H728.248ZM760.468 719.091V738H756.47V722.886H756.36L752.029 725.6V722.055L756.71 719.091H760.468Z" fill="black"/>
<rect x="647.5" y="663.5" width="146" height="130" stroke="black"/>
<rect x="464.5" y="665.5" width="142" height="126" fill="#00FF80"/>
<path d="M492.923 722.387V719.091H508.453V722.387H502.664V738H498.712V722.387H492.923ZM511.011 738V719.091H523.752V722.387H515.009V726.893H523.097V730.189H515.009V734.704H523.789V738H511.011ZM537.188 724.529C537.115 723.784 536.798 723.206 536.237 722.793C535.677 722.381 534.917 722.175 533.957 722.175C533.304 722.175 532.753 722.267 532.304 722.452C531.855 722.63 531.51 722.879 531.27 723.2C531.036 723.52 530.919 723.883 530.919 724.289C530.907 724.628 530.978 724.923 531.132 725.175C531.292 725.428 531.51 725.646 531.787 725.831C532.064 726.009 532.384 726.166 532.747 726.302C533.11 726.431 533.498 726.542 533.911 726.634L535.61 727.04C536.434 727.225 537.191 727.471 537.881 727.779C538.57 728.087 539.167 728.465 539.672 728.915C540.177 729.364 540.568 729.893 540.845 730.503C541.128 731.112 541.272 731.811 541.279 732.599C541.272 733.756 540.977 734.759 540.392 735.609C539.814 736.452 538.977 737.107 537.881 737.575C536.791 738.037 535.477 738.268 533.938 738.268C532.412 738.268 531.082 738.034 529.95 737.566C528.823 737.098 527.943 736.406 527.309 735.489C526.681 734.565 526.352 733.424 526.321 732.063H530.19C530.233 732.697 530.414 733.227 530.735 733.651C531.061 734.07 531.495 734.387 532.036 734.602C532.584 734.812 533.203 734.916 533.892 734.916C534.569 734.916 535.157 734.818 535.656 734.621C536.16 734.424 536.551 734.15 536.828 733.799C537.105 733.448 537.244 733.045 537.244 732.589C537.244 732.165 537.118 731.808 536.865 731.518C536.619 731.229 536.256 730.983 535.776 730.78C535.302 730.577 534.72 730.392 534.031 730.226L531.972 729.709C530.378 729.321 529.119 728.715 528.195 727.89C527.272 727.065 526.814 725.954 526.82 724.557C526.814 723.412 527.118 722.412 527.734 721.556C528.356 720.701 529.208 720.033 530.291 719.553C531.375 719.072 532.606 718.832 533.985 718.832C535.388 718.832 536.613 719.072 537.659 719.553C538.712 720.033 539.53 720.701 540.115 721.556C540.7 722.412 541.002 723.403 541.02 724.529H537.188ZM543.248 722.387V719.091H558.777V722.387H552.988V738H549.037V722.387H543.248ZM575.468 719.091V738H571.47V722.886H571.36L567.029 725.6V722.055L571.71 719.091H575.468Z" fill="#0080FF"/>
<rect x="464.5" y="665.5" width="142" height="126" stroke="#FF00F5" stroke-width="5"/>
<rect x="279.5" y="451.5" width="142" height="126" fill="#0080FF"/>
<path d="M307.923 508.387V505.091H323.453V508.387H317.664V524H313.712V508.387H307.923ZM326.011 524V505.091H338.752V508.387H330.009V512.893H338.097V516.189H330.009V520.704H338.789V524H326.011ZM352.188 510.529C352.115 509.784 351.798 509.206 351.237 508.793C350.677 508.381 349.917 508.175 348.957 508.175C348.304 508.175 347.753 508.267 347.304 508.452C346.855 508.63 346.51 508.879 346.27 509.2C346.036 509.52 345.919 509.883 345.919 510.289C345.907 510.628 345.978 510.923 346.132 511.175C346.292 511.428 346.51 511.646 346.787 511.831C347.064 512.009 347.384 512.166 347.747 512.302C348.11 512.431 348.498 512.542 348.911 512.634L350.61 513.04C351.434 513.225 352.191 513.471 352.881 513.779C353.57 514.087 354.167 514.465 354.672 514.915C355.177 515.364 355.568 515.893 355.845 516.503C356.128 517.112 356.272 517.811 356.279 518.599C356.272 519.756 355.977 520.759 355.392 521.609C354.814 522.452 353.977 523.107 352.881 523.575C351.791 524.037 350.477 524.268 348.938 524.268C347.412 524.268 346.082 524.034 344.95 523.566C343.823 523.098 342.943 522.406 342.309 521.489C341.681 520.565 341.352 519.424 341.321 518.063H345.19C345.233 518.697 345.414 519.227 345.735 519.651C346.061 520.07 346.495 520.387 347.036 520.602C347.584 520.812 348.203 520.916 348.892 520.916C349.569 520.916 350.157 520.818 350.656 520.621C351.16 520.424 351.551 520.15 351.828 519.799C352.105 519.448 352.244 519.045 352.244 518.589C352.244 518.165 352.118 517.808 351.865 517.518C351.619 517.229 351.256 516.983 350.776 516.78C350.302 516.577 349.72 516.392 349.031 516.226L346.972 515.709C345.378 515.321 344.119 514.715 343.195 513.89C342.272 513.065 341.814 511.954 341.82 510.557C341.814 509.412 342.118 508.412 342.734 507.556C343.356 506.701 344.208 506.033 345.291 505.553C346.375 505.072 347.606 504.832 348.985 504.832C350.388 504.832 351.613 505.072 352.659 505.553C353.712 506.033 354.53 506.701 355.115 507.556C355.7 508.412 356.002 509.403 356.02 510.529H352.188ZM358.248 508.387V505.091H373.777V508.387H367.988V524H364.037V508.387H358.248ZM390.468 505.091V524H386.47V508.886H386.36L382.029 511.6V508.055L386.71 505.091H390.468Z" fill="#FF0000"/>
<rect x="279.5" y="451.5" width="142" height="126" stroke="#FF00F5" stroke-width="5"/>
<rect x="1017.5" y="449.5" width="146" height="130" fill="#0080FF"/>
<path d="M1047.92 508.387V505.091H1063.45V508.387H1057.66V524H1053.71V508.387H1047.92ZM1066.01 524V505.091H1078.75V508.387H1070.01V512.893H1078.1V516.189H1070.01V520.704H1078.79V524H1066.01ZM1092.19 510.529C1092.11 509.784 1091.8 509.206 1091.24 508.793C1090.68 508.381 1089.92 508.175 1088.96 508.175C1088.3 508.175 1087.75 508.267 1087.3 508.452C1086.85 508.63 1086.51 508.879 1086.27 509.2C1086.04 509.52 1085.92 509.883 1085.92 510.289C1085.91 510.628 1085.98 510.923 1086.13 511.175C1086.29 511.428 1086.51 511.646 1086.79 511.831C1087.06 512.009 1087.38 512.166 1087.75 512.302C1088.11 512.431 1088.5 512.542 1088.91 512.634L1090.61 513.04C1091.43 513.225 1092.19 513.471 1092.88 513.779C1093.57 514.087 1094.17 514.465 1094.67 514.915C1095.18 515.364 1095.57 515.893 1095.84 516.503C1096.13 517.112 1096.27 517.811 1096.28 518.599C1096.27 519.756 1095.98 520.759 1095.39 521.609C1094.81 522.452 1093.98 523.107 1092.88 523.575C1091.79 524.037 1090.48 524.268 1088.94 524.268C1087.41 524.268 1086.08 524.034 1084.95 523.566C1083.82 523.098 1082.94 522.406 1082.31 521.489C1081.68 520.565 1081.35 519.424 1081.32 518.063H1085.19C1085.23 518.697 1085.41 519.227 1085.73 519.651C1086.06 520.07 1086.49 520.387 1087.04 520.602C1087.58 520.812 1088.2 520.916 1088.89 520.916C1089.57 520.916 1090.16 520.818 1090.66 520.621C1091.16 520.424 1091.55 520.15 1091.83 519.799C1092.11 519.448 1092.24 519.045 1092.24 518.589C1092.24 518.165 1092.12 517.808 1091.87 517.518C1091.62 517.229 1091.26 516.983 1090.78 516.78C1090.3 516.577 1089.72 516.392 1089.03 516.226L1086.97 515.709C1085.38 515.321 1084.12 514.715 1083.2 513.89C1082.27 513.065 1081.81 511.954 1081.82 510.557C1081.81 509.412 1082.12 508.412 1082.73 507.556C1083.36 506.701 1084.21 506.033 1085.29 505.553C1086.37 505.072 1087.61 504.832 1088.98 504.832C1090.39 504.832 1091.61 505.072 1092.66 505.553C1093.71 506.033 1094.53 506.701 1095.12 507.556C1095.7 508.412 1096 509.403 1096.02 510.529H1092.19ZM1098.25 508.387V505.091H1113.78V508.387H1107.99V524H1104.04V508.387H1098.25ZM1130.47 505.091V524H1126.47V508.886H1126.36L1122.03 511.6V508.055L1126.71 505.091H1130.47Z" fill="white"/>
<rect x="1017.5" y="449.5" width="146" height="130" stroke="black"/>
<rect x="834.5" y="451.5" width="142" height="126" fill="#0080FF"/>
<path d="M862.923 508.387V505.091H878.453V508.387H872.664V524H868.712V508.387H862.923ZM881.011 524V505.091H893.752V508.387H885.009V512.893H893.097V516.189H885.009V520.704H893.789V524H881.011ZM907.188 510.529C907.115 509.784 906.798 509.206 906.237 508.793C905.677 508.381 904.917 508.175 903.957 508.175C903.304 508.175 902.753 508.267 902.304 508.452C901.855 508.63 901.51 508.879 901.27 509.2C901.036 509.52 900.919 509.883 900.919 510.289C900.907 510.628 900.978 510.923 901.132 511.175C901.292 511.428 901.51 511.646 901.787 511.831C902.064 512.009 902.384 512.166 902.747 512.302C903.11 512.431 903.498 512.542 903.911 512.634L905.61 513.04C906.434 513.225 907.191 513.471 907.881 513.779C908.57 514.087 909.167 514.465 909.672 514.915C910.177 515.364 910.568 515.893 910.845 516.503C911.128 517.112 911.272 517.811 911.279 518.599C911.272 519.756 910.977 520.759 910.392 521.609C909.814 522.452 908.977 523.107 907.881 523.575C906.791 524.037 905.477 524.268 903.938 524.268C902.412 524.268 901.082 524.034 899.95 523.566C898.823 523.098 897.943 522.406 897.309 521.489C896.681 520.565 896.352 519.424 896.321 518.063H900.19C900.233 518.697 900.414 519.227 900.735 519.651C901.061 520.07 901.495 520.387 902.036 520.602C902.584 520.812 903.203 520.916 903.892 520.916C904.569 520.916 905.157 520.818 905.656 520.621C906.16 520.424 906.551 520.15 906.828 519.799C907.105 519.448 907.244 519.045 907.244 518.589C907.244 518.165 907.118 517.808 906.865 517.518C906.619 517.229 906.256 516.983 905.776 516.78C905.302 516.577 904.72 516.392 904.031 516.226L901.972 515.709C900.378 515.321 899.119 514.715 898.195 513.89C897.272 513.065 896.814 511.954 896.82 510.557C896.814 509.412 897.118 508.412 897.734 507.556C898.356 506.701 899.208 506.033 900.291 505.553C901.375 505.072 902.606 504.832 903.985 504.832C905.388 504.832 906.613 505.072 907.659 505.553C908.712 506.033 909.53 506.701 910.115 507.556C910.7 508.412 911.002 509.403 911.02 510.529H907.188ZM913.248 508.387V505.091H928.777V508.387H922.988V524H919.037V508.387H913.248ZM945.468 505.091V524H941.47V508.886H941.36L937.029 511.6V508.055L941.71 505.091H945.468Z" fill="#A8A8A8"/>
<rect x="834.5" y="451.5" width="142" height="126" stroke="#FF00F5" stroke-width="5"/>
<rect x="647.5" y="449.5" width="146" height="130" fill="#0080FF"/>
<path d="M677.923 508.387V505.091H693.453V508.387H687.664V524H683.712V508.387H677.923ZM696.011 524V505.091H708.752V508.387H700.009V512.893H708.097V516.189H700.009V520.704H708.789V524H696.011ZM722.188 510.529C722.115 509.784 721.798 509.206 721.237 508.793C720.677 508.381 719.917 508.175 718.957 508.175C718.304 508.175 717.753 508.267 717.304 508.452C716.855 508.63 716.51 508.879 716.27 509.2C716.036 509.52 715.919 509.883 715.919 510.289C715.907 510.628 715.978 510.923 716.132 511.175C716.292 511.428 716.51 511.646 716.787 511.831C717.064 512.009 717.384 512.166 717.747 512.302C718.11 512.431 718.498 512.542 718.911 512.634L720.61 513.04C721.434 513.225 722.191 513.471 722.881 513.779C723.57 514.087 724.167 514.465 724.672 514.915C725.177 515.364 725.568 515.893 725.845 516.503C726.128 517.112 726.272 517.811 726.279 518.599C726.272 519.756 725.977 520.759 725.392 521.609C724.814 522.452 723.977 523.107 722.881 523.575C721.791 524.037 720.477 524.268 718.938 524.268C717.412 524.268 716.082 524.034 714.95 523.566C713.823 523.098 712.943 522.406 712.309 521.489C711.681 520.565 711.352 519.424 711.321 518.063H715.19C715.233 518.697 715.414 519.227 715.735 519.651C716.061 520.07 716.495 520.387 717.036 520.602C717.584 520.812 718.203 520.916 718.892 520.916C719.569 520.916 720.157 520.818 720.656 520.621C721.16 520.424 721.551 520.15 721.828 519.799C722.105 519.448 722.244 519.045 722.244 518.589C722.244 518.165 722.118 517.808 721.865 517.518C721.619 517.229 721.256 516.983 720.776 516.78C720.302 516.577 719.72 516.392 719.031 516.226L716.972 515.709C715.378 515.321 714.119 514.715 713.195 513.89C712.272 513.065 711.814 511.954 711.82 510.557C711.814 509.412 712.118 508.412 712.734 507.556C713.356 506.701 714.208 506.033 715.291 505.553C716.375 505.072 717.606 504.832 718.985 504.832C720.388 504.832 721.613 505.072 722.659 505.553C723.712 506.033 724.53 506.701 725.115 507.556C725.7 508.412 726.002 509.403 726.02 510.529H722.188ZM728.248 508.387V505.091H743.777V508.387H737.988V524H734.037V508.387H728.248ZM760.468 505.091V524H756.47V508.886H756.36L752.029 511.6V508.055L756.71 505.091H760.468Z" fill="black"/>
<rect x="647.5" y="449.5" width="146" height="130" stroke="black"/>
<rect x="464.5" y="451.5" width="142" height="126" fill="#0080FF"/>
<path d="M492.923 508.387V505.091H508.453V508.387H502.664V524H498.712V508.387H492.923ZM511.011 524V505.091H523.752V508.387H515.009V512.893H523.097V516.189H515.009V520.704H523.789V524H511.011ZM537.188 510.529C537.115 509.784 536.798 509.206 536.237 508.793C535.677 508.381 534.917 508.175 533.957 508.175C533.304 508.175 532.753 508.267 532.304 508.452C531.855 508.63 531.51 508.879 531.27 509.2C531.036 509.52 530.919 509.883 530.919 510.289C530.907 510.628 530.978 510.923 531.132 511.175C531.292 511.428 531.51 511.646 531.787 511.831C532.064 512.009 532.384 512.166 532.747 512.302C533.11 512.431 533.498 512.542 533.911 512.634L535.61 513.04C536.434 513.225 537.191 513.471 537.881 513.779C538.57 514.087 539.167 514.465 539.672 514.915C540.177 515.364 540.568 515.893 540.845 516.503C541.128 517.112 541.272 517.811 541.279 518.599C541.272 519.756 540.977 520.759 540.392 521.609C539.814 522.452 538.977 523.107 537.881 523.575C536.791 524.037 535.477 524.268 533.938 524.268C532.412 524.268 531.082 524.034 529.95 523.566C528.823 523.098 527.943 522.406 527.309 521.489C526.681 520.565 526.352 519.424 526.321 518.063H530.19C530.233 518.697 530.414 519.227 530.735 519.651C531.061 520.07 531.495 520.387 532.036 520.602C532.584 520.812 533.203 520.916 533.892 520.916C534.569 520.916 535.157 520.818 535.656 520.621C536.16 520.424 536.551 520.15 536.828 519.799C537.105 519.448 537.244 519.045 537.244 518.589C537.244 518.165 537.118 517.808 536.865 517.518C536.619 517.229 536.256 516.983 535.776 516.78C535.302 516.577 534.72 516.392 534.031 516.226L531.972 515.709C530.378 515.321 529.119 514.715 528.195 513.89C527.272 513.065 526.814 511.954 526.82 510.557C526.814 509.412 527.118 508.412 527.734 507.556C528.356 506.701 529.208 506.033 530.291 505.553C531.375 505.072 532.606 504.832 533.985 504.832C535.388 504.832 536.613 505.072 537.659 505.553C538.712 506.033 539.53 506.701 540.115 507.556C540.7 508.412 541.002 509.403 541.02 510.529H537.188ZM543.248 508.387V505.091H558.777V508.387H552.988V524H549.037V508.387H543.248ZM575.468 505.091V524H571.47V508.886H571.36L567.029 511.6V508.055L571.71 505.091H575.468Z" fill="#00FF80"/>
<rect x="464.5" y="451.5" width="142" height="126" stroke="#FF00F5" stroke-width="5"/>
<rect x="277.5" y="877.5" width="146" height="130" fill="black"/>
<path d="M307.923 936.387V933.091H323.453V936.387H317.664V952H313.712V936.387H307.923ZM326.011 952V933.091H338.752V936.387H330.009V940.893H338.097V944.189H330.009V948.704H338.789V952H326.011ZM352.188 938.529C352.115 937.784 351.798 937.206 351.237 936.793C350.677 936.381 349.917 936.175 348.957 936.175C348.304 936.175 347.753 936.267 347.304 936.452C346.855 936.63 346.51 936.879 346.27 937.2C346.036 937.52 345.919 937.883 345.919 938.289C345.907 938.628 345.978 938.923 346.132 939.175C346.292 939.428 346.51 939.646 346.787 939.831C347.064 940.009 347.384 940.166 347.747 940.302C348.11 940.431 348.498 940.542 348.911 940.634L350.61 941.04C351.434 941.225 352.191 941.471 352.881 941.779C353.57 942.087 354.167 942.465 354.672 942.915C355.177 943.364 355.568 943.893 355.845 944.503C356.128 945.112 356.272 945.811 356.279 946.599C356.272 947.756 355.977 948.759 355.392 949.609C354.814 950.452 353.977 951.107 352.881 951.575C351.791 952.037 350.477 952.268 348.938 952.268C347.412 952.268 346.082 952.034 344.95 951.566C343.823 951.098 342.943 950.406 342.309 949.489C341.681 948.565 341.352 947.424 341.321 946.063H345.19C345.233 946.697 345.414 947.227 345.735 947.651C346.061 948.07 346.495 948.387 347.036 948.602C347.584 948.812 348.203 948.916 348.892 948.916C349.569 948.916 350.157 948.818 350.656 948.621C351.16 948.424 351.551 948.15 351.828 947.799C352.105 947.448 352.244 947.045 352.244 946.589C352.244 946.165 352.118 945.808 351.865 945.518C351.619 945.229 351.256 944.983 350.776 944.78C350.302 944.577 349.72 944.392 349.031 944.226L346.972 943.709C345.378 943.321 344.119 942.715 343.195 941.89C342.272 941.065 341.814 939.954 341.82 938.557C341.814 937.412 342.118 936.412 342.734 935.556C343.356 934.701 344.208 934.033 345.291 933.553C346.375 933.072 347.606 932.832 348.985 932.832C350.388 932.832 351.613 933.072 352.659 933.553C353.712 934.033 354.53 934.701 355.115 935.556C355.7 936.412 356.002 937.403 356.02 938.529H352.188ZM358.248 936.387V933.091H373.777V936.387H367.988V952H364.037V936.387H358.248ZM390.468 933.091V952H386.47V936.886H386.36L382.029 939.6V936.055L386.71 933.091H390.468Z" fill="#FF0000"/>
<rect x="277.5" y="877.5" width="146" height="130" stroke="black"/>
<rect x="1017.5" y="877.5" width="146" height="130" fill="black"/>
<path d="M1047.92 936.387V933.091H1063.45V936.387H1057.66V952H1053.71V936.387H1047.92ZM1066.01 952V933.091H1078.75V936.387H1070.01V940.893H1078.1V944.189H1070.01V948.704H1078.79V952H1066.01ZM1092.19 938.529C1092.11 937.784 1091.8 937.206 1091.24 936.793C1090.68 936.381 1089.92 936.175 1088.96 936.175C1088.3 936.175 1087.75 936.267 1087.3 936.452C1086.85 936.63 1086.51 936.879 1086.27 937.2C1086.04 937.52 1085.92 937.883 1085.92 938.289C1085.91 938.628 1085.98 938.923 1086.13 939.175C1086.29 939.428 1086.51 939.646 1086.79 939.831C1087.06 940.009 1087.38 940.166 1087.75 940.302C1088.11 940.431 1088.5 940.542 1088.91 940.634L1090.61 941.04C1091.43 941.225 1092.19 941.471 1092.88 941.779C1093.57 942.087 1094.17 942.465 1094.67 942.915C1095.18 943.364 1095.57 943.893 1095.84 944.503C1096.13 945.112 1096.27 945.811 1096.28 946.599C1096.27 947.756 1095.98 948.759 1095.39 949.609C1094.81 950.452 1093.98 951.107 1092.88 951.575C1091.79 952.037 1090.48 952.268 1088.94 952.268C1087.41 952.268 1086.08 952.034 1084.95 951.566C1083.82 951.098 1082.94 950.406 1082.31 949.489C1081.68 948.565 1081.35 947.424 1081.32 946.063H1085.19C1085.23 946.697 1085.41 947.227 1085.73 947.651C1086.06 948.07 1086.49 948.387 1087.04 948.602C1087.58 948.812 1088.2 948.916 1088.89 948.916C1089.57 948.916 1090.16 948.818 1090.66 948.621C1091.16 948.424 1091.55 948.15 1091.83 947.799C1092.11 947.448 1092.24 947.045 1092.24 946.589C1092.24 946.165 1092.12 945.808 1091.87 945.518C1091.62 945.229 1091.26 944.983 1090.78 944.78C1090.3 944.577 1089.72 944.392 1089.03 944.226L1086.97 943.709C1085.38 943.321 1084.12 942.715 1083.2 941.89C1082.27 941.065 1081.81 939.954 1081.82 938.557C1081.81 937.412 1082.12 936.412 1082.73 935.556C1083.36 934.701 1084.21 934.033 1085.29 933.553C1086.37 933.072 1087.61 932.832 1088.98 932.832C1090.39 932.832 1091.61 933.072 1092.66 933.553C1093.71 934.033 1094.53 934.701 1095.12 935.556C1095.7 936.412 1096 937.403 1096.02 938.529H1092.19ZM1098.25 936.387V933.091H1113.78V936.387H1107.99V952H1104.04V936.387H1098.25ZM1130.47 933.091V952H1126.47V936.886H1126.36L1122.03 939.6V936.055L1126.71 933.091H1130.47Z" fill="white"/>
<rect x="1017.5" y="877.5" width="146" height="130" stroke="black"/>
<rect x="832.5" y="877.5" width="146" height="130" fill="black"/>
<path d="M862.923 936.387V933.091H878.453V936.387H872.664V952H868.712V936.387H862.923ZM881.011 952V933.091H893.752V936.387H885.009V940.893H893.097V944.189H885.009V948.704H893.789V952H881.011ZM907.188 938.529C907.115 937.784 906.798 937.206 906.237 936.793C905.677 936.381 904.917 936.175 903.957 936.175C903.304 936.175 902.753 936.267 902.304 936.452C901.855 936.63 901.51 936.879 901.27 937.2C901.036 937.52 900.919 937.883 900.919 938.289C900.907 938.628 900.978 938.923 901.132 939.175C901.292 939.428 901.51 939.646 901.787 939.831C902.064 940.009 902.384 940.166 902.747 940.302C903.11 940.431 903.498 940.542 903.911 940.634L905.61 941.04C906.434 941.225 907.191 941.471 907.881 941.779C908.57 942.087 909.167 942.465 909.672 942.915C910.177 943.364 910.568 943.893 910.845 944.503C911.128 945.112 911.272 945.811 911.279 946.599C911.272 947.756 910.977 948.759 910.392 949.609C909.814 950.452 908.977 951.107 907.881 951.575C906.791 952.037 905.477 952.268 903.938 952.268C902.412 952.268 901.082 952.034 899.95 951.566C898.823 951.098 897.943 950.406 897.309 949.489C896.681 948.565 896.352 947.424 896.321 946.063H900.19C900.233 946.697 900.414 947.227 900.735 947.651C901.061 948.07 901.495 948.387 902.036 948.602C902.584 948.812 903.203 948.916 903.892 948.916C904.569 948.916 905.157 948.818 905.656 948.621C906.16 948.424 906.551 948.15 906.828 947.799C907.105 947.448 907.244 947.045 907.244 946.589C907.244 946.165 907.118 945.808 906.865 945.518C906.619 945.229 906.256 944.983 905.776 944.78C905.302 944.577 904.72 944.392 904.031 944.226L901.972 943.709C900.378 943.321 899.119 942.715 898.195 941.89C897.272 941.065 896.814 939.954 896.82 938.557C896.814 937.412 897.118 936.412 897.734 935.556C898.356 934.701 899.208 934.033 900.291 933.553C901.375 933.072 902.606 932.832 903.985 932.832C905.388 932.832 906.613 933.072 907.659 933.553C908.712 934.033 909.53 934.701 910.115 935.556C910.7 936.412 911.002 937.403 911.02 938.529H907.188ZM913.248 936.387V933.091H928.777V936.387H922.988V952H919.037V936.387H913.248ZM945.468 933.091V952H941.47V936.886H941.36L937.029 939.6V936.055L941.71 933.091H945.468Z" fill="#A8A8A8"/>
<rect x="832.5" y="877.5" width="146" height="130" stroke="black"/>
<rect x="647.5" y="877.5" width="146" height="130" fill="black"/>
<path d="M677.923 936.387V933.091H693.453V936.387H687.664V952H683.712V936.387H677.923ZM696.011 952V933.091H708.752V936.387H700.009V940.893H708.097V944.189H700.009V948.704H708.789V952H696.011ZM722.188 938.529C722.115 937.784 721.798 937.206 721.237 936.793C720.677 936.381 719.917 936.175 718.957 936.175C718.304 936.175 717.753 936.267 717.304 936.452C716.855 936.63 716.51 936.879 716.27 937.2C716.036 937.52 715.919 937.883 715.919 938.289C715.907 938.628 715.978 938.923 716.132 939.175C716.292 939.428 716.51 939.646 716.787 939.831C717.064 940.009 717.384 940.166 717.747 940.302C718.11 940.431 718.498 940.542 718.911 940.634L720.61 941.04C721.434 941.225 722.191 941.471 722.881 941.779C723.57 942.087 724.167 942.465 724.672 942.915C725.177 943.364 725.568 943.893 725.845 944.503C726.128 945.112 726.272 945.811 726.279 946.599C726.272 947.756 725.977 948.759 725.392 949.609C724.814 950.452 723.977 951.107 722.881 951.575C721.791 952.037 720.477 952.268 718.938 952.268C717.412 952.268 716.082 952.034 714.95 951.566C713.823 951.098 712.943 950.406 712.309 949.489C711.681 948.565 711.352 947.424 711.321 946.063H715.19C715.233 946.697 715.414 947.227 715.735 947.651C716.061 948.07 716.495 948.387 717.036 948.602C717.584 948.812 718.203 948.916 718.892 948.916C719.569 948.916 720.157 948.818 720.656 948.621C721.16 948.424 721.551 948.15 721.828 947.799C722.105 947.448 722.244 947.045 722.244 946.589C722.244 946.165 722.118 945.808 721.865 945.518C721.619 945.229 721.256 944.983 720.776 944.78C720.302 944.577 719.72 944.392 719.031 944.226L716.972 943.709C715.378 943.321 714.119 942.715 713.195 941.89C712.272 941.065 711.814 939.954 711.82 938.557C711.814 937.412 712.118 936.412 712.734 935.556C713.356 934.701 714.208 934.033 715.291 933.553C716.375 933.072 717.606 932.832 718.985 932.832C720.388 932.832 721.613 933.072 722.659 933.553C723.712 934.033 724.53 934.701 725.115 935.556C725.7 936.412 726.002 937.403 726.02 938.529H722.188ZM728.248 936.387V933.091H743.777V936.387H737.988V952H734.037V936.387H728.248ZM760.468 933.091V952H756.47V936.886H756.36L752.029 939.6V936.055L756.71 933.091H760.468Z" fill="#00FF80"/>
<rect x="647.5" y="877.5" width="146" height="130" stroke="black"/>
<rect x="462.5" y="877.5" width="146" height="130" fill="black"/>
<path d="M492.923 936.387V933.091H508.453V936.387H502.664V952H498.712V936.387H492.923ZM511.011 952V933.091H523.752V936.387H515.009V940.893H523.097V944.189H515.009V948.704H523.789V952H511.011ZM537.188 938.529C537.115 937.784 536.798 937.206 536.237 936.793C535.677 936.381 534.917 936.175 533.957 936.175C533.304 936.175 532.753 936.267 532.304 936.452C531.855 936.63 531.51 936.879 531.27 937.2C531.036 937.52 530.919 937.883 530.919 938.289C530.907 938.628 530.978 938.923 531.132 939.175C531.292 939.428 531.51 939.646 531.787 939.831C532.064 940.009 532.384 940.166 532.747 940.302C533.11 940.431 533.498 940.542 533.911 940.634L535.61 941.04C536.434 941.225 537.191 941.471 537.881 941.779C538.57 942.087 539.167 942.465 539.672 942.915C540.177 943.364 540.568 943.893 540.845 944.503C541.128 945.112 541.272 945.811 541.279 946.599C541.272 947.756 540.977 948.759 540.392 949.609C539.814 950.452 538.977 951.107 537.881 951.575C536.791 952.037 535.477 952.268 533.938 952.268C532.412 952.268 531.082 952.034 529.95 951.566C528.823 951.098 527.943 950.406 527.309 949.489C526.681 948.565 526.352 947.424 526.321 946.063H530.19C530.233 946.697 530.414 947.227 530.735 947.651C531.061 948.07 531.495 948.387 532.036 948.602C532.584 948.812 533.203 948.916 533.892 948.916C534.569 948.916 535.157 948.818 535.656 948.621C536.16 948.424 536.551 948.15 536.828 947.799C537.105 947.448 537.244 947.045 537.244 946.589C537.244 946.165 537.118 945.808 536.865 945.518C536.619 945.229 536.256 944.983 535.776 944.78C535.302 944.577 534.72 944.392 534.031 944.226L531.972 943.709C530.378 943.321 529.119 942.715 528.195 941.89C527.272 941.065 526.814 939.954 526.82 938.557C526.814 937.412 527.118 936.412 527.734 935.556C528.356 934.701 529.208 934.033 530.291 933.553C531.375 933.072 532.606 932.832 533.985 932.832C535.388 932.832 536.613 933.072 537.659 933.553C538.712 934.033 539.53 934.701 540.115 935.556C540.7 936.412 541.002 937.403 541.02 938.529H537.188ZM543.248 936.387V933.091H558.777V936.387H552.988V952H549.037V936.387H543.248ZM575.468 933.091V952H571.47V936.886H571.36L567.029 939.6V936.055L571.71 933.091H575.468Z" fill="#0080FF"/>
<rect x="462.5" y="877.5" width="146" height="130" stroke="black"/>
<rect x="277.5" y="1305.5" width="146" height="130" fill="white"/>
<path d="M307.923 1364.39V1361.09H323.453V1364.39H317.664V1380H313.712V1364.39H307.923ZM326.011 1380V1361.09H338.752V1364.39H330.009V1368.89H338.097V1372.19H330.009V1376.7H338.789V1380H326.011ZM352.188 1366.53C352.115 1365.78 351.798 1365.21 351.237 1364.79C350.677 1364.38 349.917 1364.17 348.957 1364.17C348.304 1364.17 347.753 1364.27 347.304 1364.45C346.855 1364.63 346.51 1364.88 346.27 1365.2C346.036 1365.52 345.919 1365.88 345.919 1366.29C345.907 1366.63 345.978 1366.92 346.132 1367.18C346.292 1367.43 346.51 1367.65 346.787 1367.83C347.064 1368.01 347.384 1368.17 347.747 1368.3C348.11 1368.43 348.498 1368.54 348.911 1368.63L350.61 1369.04C351.434 1369.23 352.191 1369.47 352.881 1369.78C353.57 1370.09 354.167 1370.47 354.672 1370.91C355.177 1371.36 355.568 1371.89 355.845 1372.5C356.128 1373.11 356.272 1373.81 356.279 1374.6C356.272 1375.76 355.977 1376.76 355.392 1377.61C354.814 1378.45 353.977 1379.11 352.881 1379.58C351.791 1380.04 350.477 1380.27 348.938 1380.27C347.412 1380.27 346.082 1380.03 344.95 1379.57C343.823 1379.1 342.943 1378.41 342.309 1377.49C341.681 1376.57 341.352 1375.42 341.321 1374.06H345.19C345.233 1374.7 345.414 1375.23 345.735 1375.65C346.061 1376.07 346.495 1376.39 347.036 1376.6C347.584 1376.81 348.203 1376.92 348.892 1376.92C349.569 1376.92 350.157 1376.82 350.656 1376.62C351.16 1376.42 351.551 1376.15 351.828 1375.8C352.105 1375.45 352.244 1375.04 352.244 1374.59C352.244 1374.16 352.118 1373.81 351.865 1373.52C351.619 1373.23 351.256 1372.98 350.776 1372.78C350.302 1372.58 349.72 1372.39 349.031 1372.23L346.972 1371.71C345.378 1371.32 344.119 1370.71 343.195 1369.89C342.272 1369.07 341.814 1367.95 341.82 1366.56C341.814 1365.41 342.118 1364.41 342.734 1363.56C343.356 1362.7 344.208 1362.03 345.291 1361.55C346.375 1361.07 347.606 1360.83 348.985 1360.83C350.388 1360.83 351.613 1361.07 352.659 1361.55C353.712 1362.03 354.53 1362.7 355.115 1363.56C355.7 1364.41 356.002 1365.4 356.02 1366.53H352.188ZM358.248 1364.39V1361.09H373.777V1364.39H367.988V1380H364.037V1364.39H358.248ZM390.468 1361.09V1380H386.47V1364.89H386.36L382.029 1367.6V1364.05L386.71 1361.09H390.468Z" fill="#FF0000"/>
<rect x="277.5" y="1305.5" width="146" height="130" stroke="black"/>
<rect x="1019.5" y="1307.5" width="142" height="126" fill="white"/>
<path d="M1047.92 1364.39V1361.09H1063.45V1364.39H1057.66V1380H1053.71V1364.39H1047.92ZM1066.01 1380V1361.09H1078.75V1364.39H1070.01V1368.89H1078.1V1372.19H1070.01V1376.7H1078.79V1380H1066.01ZM1092.19 1366.53C1092.11 1365.78 1091.8 1365.21 1091.24 1364.79C1090.68 1364.38 1089.92 1364.17 1088.96 1364.17C1088.3 1364.17 1087.75 1364.27 1087.3 1364.45C1086.85 1364.63 1086.51 1364.88 1086.27 1365.2C1086.04 1365.52 1085.92 1365.88 1085.92 1366.29C1085.91 1366.63 1085.98 1366.92 1086.13 1367.18C1086.29 1367.43 1086.51 1367.65 1086.79 1367.83C1087.06 1368.01 1087.38 1368.17 1087.75 1368.3C1088.11 1368.43 1088.5 1368.54 1088.91 1368.63L1090.61 1369.04C1091.43 1369.23 1092.19 1369.47 1092.88 1369.78C1093.57 1370.09 1094.17 1370.47 1094.67 1370.91C1095.18 1371.36 1095.57 1371.89 1095.84 1372.5C1096.13 1373.11 1096.27 1373.81 1096.28 1374.6C1096.27 1375.76 1095.98 1376.76 1095.39 1377.61C1094.81 1378.45 1093.98 1379.11 1092.88 1379.58C1091.79 1380.04 1090.48 1380.27 1088.94 1380.27C1087.41 1380.27 1086.08 1380.03 1084.95 1379.57C1083.82 1379.1 1082.94 1378.41 1082.31 1377.49C1081.68 1376.57 1081.35 1375.42 1081.32 1374.06H1085.19C1085.23 1374.7 1085.41 1375.23 1085.73 1375.65C1086.06 1376.07 1086.49 1376.39 1087.04 1376.6C1087.58 1376.81 1088.2 1376.92 1088.89 1376.92C1089.57 1376.92 1090.16 1376.82 1090.66 1376.62C1091.16 1376.42 1091.55 1376.15 1091.83 1375.8C1092.11 1375.45 1092.24 1375.04 1092.24 1374.59C1092.24 1374.16 1092.12 1373.81 1091.87 1373.52C1091.62 1373.23 1091.26 1372.98 1090.78 1372.78C1090.3 1372.58 1089.72 1372.39 1089.03 1372.23L1086.97 1371.71C1085.38 1371.32 1084.12 1370.71 1083.2 1369.89C1082.27 1369.07 1081.81 1367.95 1081.82 1366.56C1081.81 1365.41 1082.12 1364.41 1082.73 1363.56C1083.36 1362.7 1084.21 1362.03 1085.29 1361.55C1086.37 1361.07 1087.61 1360.83 1088.98 1360.83C1090.39 1360.83 1091.61 1361.07 1092.66 1361.55C1093.71 1362.03 1094.53 1362.7 1095.12 1363.56C1095.7 1364.41 1096 1365.4 1096.02 1366.53H1092.19ZM1098.25 1364.39V1361.09H1113.78V1364.39H1107.99V1380H1104.04V1364.39H1098.25ZM1130.47 1361.09V1380H1126.47V1364.89H1126.36L1122.03 1367.6V1364.05L1126.71 1361.09H1130.47Z" fill="#A8A8A8"/>
<rect x="1019.5" y="1307.5" width="142" height="126" stroke="#FF00F5" stroke-width="5"/>
<rect x="832.5" y="1305.5" width="146" height="130" fill="white"/>
<path d="M862.923 1364.39V1361.09H878.453V1364.39H872.664V1380H868.712V1364.39H862.923ZM881.011 1380V1361.09H893.752V1364.39H885.009V1368.89H893.097V1372.19H885.009V1376.7H893.789V1380H881.011ZM907.188 1366.53C907.115 1365.78 906.798 1365.21 906.237 1364.79C905.677 1364.38 904.917 1364.17 903.957 1364.17C903.304 1364.17 902.753 1364.27 902.304 1364.45C901.855 1364.63 901.51 1364.88 901.27 1365.2C901.036 1365.52 900.919 1365.88 900.919 1366.29C900.907 1366.63 900.978 1366.92 901.132 1367.18C901.292 1367.43 901.51 1367.65 901.787 1367.83C902.064 1368.01 902.384 1368.17 902.747 1368.3C903.11 1368.43 903.498 1368.54 903.911 1368.63L905.61 1369.04C906.434 1369.23 907.191 1369.47 907.881 1369.78C908.57 1370.09 909.167 1370.47 909.672 1370.91C910.177 1371.36 910.568 1371.89 910.845 1372.5C911.128 1373.11 911.272 1373.81 911.279 1374.6C911.272 1375.76 910.977 1376.76 910.392 1377.61C909.814 1378.45 908.977 1379.11 907.881 1379.58C906.791 1380.04 905.477 1380.27 903.938 1380.27C902.412 1380.27 901.082 1380.03 899.95 1379.57C898.823 1379.1 897.943 1378.41 897.309 1377.49C896.681 1376.57 896.352 1375.42 896.321 1374.06H900.19C900.233 1374.7 900.414 1375.23 900.735 1375.65C901.061 1376.07 901.495 1376.39 902.036 1376.6C902.584 1376.81 903.203 1376.92 903.892 1376.92C904.569 1376.92 905.157 1376.82 905.656 1376.62C906.16 1376.42 906.551 1376.15 906.828 1375.8C907.105 1375.45 907.244 1375.04 907.244 1374.59C907.244 1374.16 907.118 1373.81 906.865 1373.52C906.619 1373.23 906.256 1372.98 905.776 1372.78C905.302 1372.58 904.72 1372.39 904.031 1372.23L901.972 1371.71C900.378 1371.32 899.119 1370.71 898.195 1369.89C897.272 1369.07 896.814 1367.95 896.82 1366.56C896.814 1365.41 897.118 1364.41 897.734 1363.56C898.356 1362.7 899.208 1362.03 900.291 1361.55C901.375 1361.07 902.606 1360.83 903.985 1360.83C905.388 1360.83 906.613 1361.07 907.659 1361.55C908.712 1362.03 909.53 1362.7 910.115 1363.56C910.7 1364.41 911.002 1365.4 911.02 1366.53H907.188ZM913.248 1364.39V1361.09H928.777V1364.39H922.988V1380H919.037V1364.39H913.248ZM945.468 1361.09V1380H941.47V1364.89H941.36L937.029 1367.6V1364.05L941.71 1361.09H945.468Z" fill="black"/>
<rect x="832.5" y="1305.5" width="146" height="130" stroke="black"/>
<rect x="649.5" y="1307.5" width="142" height="126" fill="white"/>
<path d="M677.923 1364.39V1361.09H693.453V1364.39H687.664V1380H683.712V1364.39H677.923ZM696.011 1380V1361.09H708.752V1364.39H700.009V1368.89H708.097V1372.19H700.009V1376.7H708.789V1380H696.011ZM722.188 1366.53C722.115 1365.78 721.798 1365.21 721.237 1364.79C720.677 1364.38 719.917 1364.17 718.957 1364.17C718.304 1364.17 717.753 1364.27 717.304 1364.45C716.855 1364.63 716.51 1364.88 716.27 1365.2C716.036 1365.52 715.919 1365.88 715.919 1366.29C715.907 1366.63 715.978 1366.92 716.132 1367.18C716.292 1367.43 716.51 1367.65 716.787 1367.83C717.064 1368.01 717.384 1368.17 717.747 1368.3C718.11 1368.43 718.498 1368.54 718.911 1368.63L720.61 1369.04C721.434 1369.23 722.191 1369.47 722.881 1369.78C723.57 1370.09 724.167 1370.47 724.672 1370.91C725.177 1371.36 725.568 1371.89 725.845 1372.5C726.128 1373.11 726.272 1373.81 726.279 1374.6C726.272 1375.76 725.977 1376.76 725.392 1377.61C724.814 1378.45 723.977 1379.11 722.881 1379.58C721.791 1380.04 720.477 1380.27 718.938 1380.27C717.412 1380.27 716.082 1380.03 714.95 1379.57C713.823 1379.1 712.943 1378.41 712.309 1377.49C711.681 1376.57 711.352 1375.42 711.321 1374.06H715.19C715.233 1374.7 715.414 1375.23 715.735 1375.65C716.061 1376.07 716.495 1376.39 717.036 1376.6C717.584 1376.81 718.203 1376.92 718.892 1376.92C719.569 1376.92 720.157 1376.82 720.656 1376.62C721.16 1376.42 721.551 1376.15 721.828 1375.8C722.105 1375.45 722.244 1375.04 722.244 1374.59C722.244 1374.16 722.118 1373.81 721.865 1373.52C721.619 1373.23 721.256 1372.98 720.776 1372.78C720.302 1372.58 719.72 1372.39 719.031 1372.23L716.972 1371.71C715.378 1371.32 714.119 1370.71 713.195 1369.89C712.272 1369.07 711.814 1367.95 711.82 1366.56C711.814 1365.41 712.118 1364.41 712.734 1363.56C713.356 1362.7 714.208 1362.03 715.291 1361.55C716.375 1361.07 717.606 1360.83 718.985 1360.83C720.388 1360.83 721.613 1361.07 722.659 1361.55C723.712 1362.03 724.53 1362.7 725.115 1363.56C725.7 1364.41 726.002 1365.4 726.02 1366.53H722.188ZM728.248 1364.39V1361.09H743.777V1364.39H737.988V1380H734.037V1364.39H728.248ZM760.468 1361.09V1380H756.47V1364.89H756.36L752.029 1367.6V1364.05L756.71 1361.09H760.468Z" fill="#00FF80"/>
<rect x="649.5" y="1307.5" width="142" height="126" stroke="#FF00F5" stroke-width="5"/>
<rect x="462.5" y="1305.5" width="146" height="130" fill="white"/>
<path d="M492.923 1364.39V1361.09H508.453V1364.39H502.664V1380H498.712V1364.39H492.923ZM511.011 1380V1361.09H523.752V1364.39H515.009V1368.89H523.097V1372.19H515.009V1376.7H523.789V1380H511.011ZM537.188 1366.53C537.115 1365.78 536.798 1365.21 536.237 1364.79C535.677 1364.38 534.917 1364.17 533.957 1364.17C533.304 1364.17 532.753 1364.27 532.304 1364.45C531.855 1364.63 531.51 1364.88 531.27 1365.2C531.036 1365.52 530.919 1365.88 530.919 1366.29C530.907 1366.63 530.978 1366.92 531.132 1367.18C531.292 1367.43 531.51 1367.65 531.787 1367.83C532.064 1368.01 532.384 1368.17 532.747 1368.3C533.11 1368.43 533.498 1368.54 533.911 1368.63L535.61 1369.04C536.434 1369.23 537.191 1369.47 537.881 1369.78C538.57 1370.09 539.167 1370.47 539.672 1370.91C540.177 1371.36 540.568 1371.89 540.845 1372.5C541.128 1373.11 541.272 1373.81 541.279 1374.6C541.272 1375.76 540.977 1376.76 540.392 1377.61C539.814 1378.45 538.977 1379.11 537.881 1379.58C536.791 1380.04 535.477 1380.27 533.938 1380.27C532.412 1380.27 531.082 1380.03 529.95 1379.57C528.823 1379.1 527.943 1378.41 527.309 1377.49C526.681 1376.57 526.352 1375.42 526.321 1374.06H530.19C530.233 1374.7 530.414 1375.23 530.735 1375.65C531.061 1376.07 531.495 1376.39 532.036 1376.6C532.584 1376.81 533.203 1376.92 533.892 1376.92C534.569 1376.92 535.157 1376.82 535.656 1376.62C536.16 1376.42 536.551 1376.15 536.828 1375.8C537.105 1375.45 537.244 1375.04 537.244 1374.59C537.244 1374.16 537.118 1373.81 536.865 1373.52C536.619 1373.23 536.256 1372.98 535.776 1372.78C535.302 1372.58 534.72 1372.39 534.031 1372.23L531.972 1371.71C530.378 1371.32 529.119 1370.71 528.195 1369.89C527.272 1369.07 526.814 1367.95 526.82 1366.56C526.814 1365.41 527.118 1364.41 527.734 1363.56C528.356 1362.7 529.208 1362.03 530.291 1361.55C531.375 1361.07 532.606 1360.83 533.985 1360.83C535.388 1360.83 536.613 1361.07 537.659 1361.55C538.712 1362.03 539.53 1362.7 540.115 1363.56C540.7 1364.41 541.002 1365.4 541.02 1366.53H537.188ZM543.248 1364.39V1361.09H558.777V1364.39H552.988V1380H549.037V1364.39H543.248ZM575.468 1361.09V1380H571.47V1364.89H571.36L567.029 1367.6V1364.05L571.71 1361.09H575.468Z" fill="#0080FF"/>
<rect x="462.5" y="1305.5" width="146" height="130" stroke="black"/>
<rect x="279.5" y="1093.5" width="142" height="126" fill="#A8A8A8"/>
<path d="M307.923 1150.39V1147.09H323.453V1150.39H317.664V1166H313.712V1150.39H307.923ZM326.011 1166V1147.09H338.752V1150.39H330.009V1154.89H338.097V1158.19H330.009V1162.7H338.789V1166H326.011ZM352.188 1152.53C352.115 1151.78 351.798 1151.21 351.237 1150.79C350.677 1150.38 349.917 1150.17 348.957 1150.17C348.304 1150.17 347.753 1150.27 347.304 1150.45C346.855 1150.63 346.51 1150.88 346.27 1151.2C346.036 1151.52 345.919 1151.88 345.919 1152.29C345.907 1152.63 345.978 1152.92 346.132 1153.18C346.292 1153.43 346.51 1153.65 346.787 1153.83C347.064 1154.01 347.384 1154.17 347.747 1154.3C348.11 1154.43 348.498 1154.54 348.911 1154.63L350.61 1155.04C351.434 1155.23 352.191 1155.47 352.881 1155.78C353.57 1156.09 354.167 1156.47 354.672 1156.91C355.177 1157.36 355.568 1157.89 355.845 1158.5C356.128 1159.11 356.272 1159.81 356.279 1160.6C356.272 1161.76 355.977 1162.76 355.392 1163.61C354.814 1164.45 353.977 1165.11 352.881 1165.58C351.791 1166.04 350.477 1166.27 348.938 1166.27C347.412 1166.27 346.082 1166.03 344.95 1165.57C343.823 1165.1 342.943 1164.41 342.309 1163.49C341.681 1162.57 341.352 1161.42 341.321 1160.06H345.19C345.233 1160.7 345.414 1161.23 345.735 1161.65C346.061 1162.07 346.495 1162.39 347.036 1162.6C347.584 1162.81 348.203 1162.92 348.892 1162.92C349.569 1162.92 350.157 1162.82 350.656 1162.62C351.16 1162.42 351.551 1162.15 351.828 1161.8C352.105 1161.45 352.244 1161.04 352.244 1160.59C352.244 1160.16 352.118 1159.81 351.865 1159.52C351.619 1159.23 351.256 1158.98 350.776 1158.78C350.302 1158.58 349.72 1158.39 349.031 1158.23L346.972 1157.71C345.378 1157.32 344.119 1156.71 343.195 1155.89C342.272 1155.07 341.814 1153.95 341.82 1152.56C341.814 1151.41 342.118 1150.41 342.734 1149.56C343.356 1148.7 344.208 1148.03 345.291 1147.55C346.375 1147.07 347.606 1146.83 348.985 1146.83C350.388 1146.83 351.613 1147.07 352.659 1147.55C353.712 1148.03 354.53 1148.7 355.115 1149.56C355.7 1150.41 356.002 1151.4 356.02 1152.53H352.188ZM358.248 1150.39V1147.09H373.777V1150.39H367.988V1166H364.037V1150.39H358.248ZM390.468 1147.09V1166H386.47V1150.89H386.36L382.029 1153.6V1150.05L386.71 1147.09H390.468Z" fill="#FF0000"/>
<rect x="279.5" y="1093.5" width="142" height="126" stroke="#FF00F5" stroke-width="5"/>
<rect x="1019.5" y="1093.5" width="142" height="126" fill="#A8A8A8"/>
<path d="M1047.92 1150.39V1147.09H1063.45V1150.39H1057.66V1166H1053.71V1150.39H1047.92ZM1066.01 1166V1147.09H1078.75V1150.39H1070.01V1154.89H1078.1V1158.19H1070.01V1162.7H1078.79V1166H1066.01ZM1092.19 1152.53C1092.11 1151.78 1091.8 1151.21 1091.24 1150.79C1090.68 1150.38 1089.92 1150.17 1088.96 1150.17C1088.3 1150.17 1087.75 1150.27 1087.3 1150.45C1086.85 1150.63 1086.51 1150.88 1086.27 1151.2C1086.04 1151.52 1085.92 1151.88 1085.92 1152.29C1085.91 1152.63 1085.98 1152.92 1086.13 1153.18C1086.29 1153.43 1086.51 1153.65 1086.79 1153.83C1087.06 1154.01 1087.38 1154.17 1087.75 1154.3C1088.11 1154.43 1088.5 1154.54 1088.91 1154.63L1090.61 1155.04C1091.43 1155.23 1092.19 1155.47 1092.88 1155.78C1093.57 1156.09 1094.17 1156.47 1094.67 1156.91C1095.18 1157.36 1095.57 1157.89 1095.84 1158.5C1096.13 1159.11 1096.27 1159.81 1096.28 1160.6C1096.27 1161.76 1095.98 1162.76 1095.39 1163.61C1094.81 1164.45 1093.98 1165.11 1092.88 1165.58C1091.79 1166.04 1090.48 1166.27 1088.94 1166.27C1087.41 1166.27 1086.08 1166.03 1084.95 1165.57C1083.82 1165.1 1082.94 1164.41 1082.31 1163.49C1081.68 1162.57 1081.35 1161.42 1081.32 1160.06H1085.19C1085.23 1160.7 1085.41 1161.23 1085.73 1161.65C1086.06 1162.07 1086.49 1162.39 1087.04 1162.6C1087.58 1162.81 1088.2 1162.92 1088.89 1162.92C1089.57 1162.92 1090.16 1162.82 1090.66 1162.62C1091.16 1162.42 1091.55 1162.15 1091.83 1161.8C1092.11 1161.45 1092.24 1161.04 1092.24 1160.59C1092.24 1160.16 1092.12 1159.81 1091.87 1159.52C1091.62 1159.23 1091.26 1158.98 1090.78 1158.78C1090.3 1158.58 1089.72 1158.39 1089.03 1158.23L1086.97 1157.71C1085.38 1157.32 1084.12 1156.71 1083.2 1155.89C1082.27 1155.07 1081.81 1153.95 1081.82 1152.56C1081.81 1151.41 1082.12 1150.41 1082.73 1149.56C1083.36 1148.7 1084.21 1148.03 1085.29 1147.55C1086.37 1147.07 1087.61 1146.83 1088.98 1146.83C1090.39 1146.83 1091.61 1147.07 1092.66 1147.55C1093.71 1148.03 1094.53 1148.7 1095.12 1149.56C1095.7 1150.41 1096 1151.4 1096.02 1152.53H1092.19ZM1098.25 1150.39V1147.09H1113.78V1150.39H1107.99V1166H1104.04V1150.39H1098.25ZM1130.47 1147.09V1166H1126.47V1150.89H1126.36L1122.03 1153.6V1150.05L1126.71 1147.09H1130.47Z" fill="white"/>
<rect x="1019.5" y="1093.5" width="142" height="126" stroke="#FF00F5" stroke-width="5"/>
<rect x="832.5" y="1091.5" width="146" height="130" fill="#A8A8A8"/>
<path d="M862.923 1150.39V1147.09H878.453V1150.39H872.664V1166H868.712V1150.39H862.923ZM881.011 1166V1147.09H893.752V1150.39H885.009V1154.89H893.097V1158.19H885.009V1162.7H893.789V1166H881.011ZM907.188 1152.53C907.115 1151.78 906.798 1151.21 906.237 1150.79C905.677 1150.38 904.917 1150.17 903.957 1150.17C903.304 1150.17 902.753 1150.27 902.304 1150.45C901.855 1150.63 901.51 1150.88 901.27 1151.2C901.036 1151.52 900.919 1151.88 900.919 1152.29C900.907 1152.63 900.978 1152.92 901.132 1153.18C901.292 1153.43 901.51 1153.65 901.787 1153.83C902.064 1154.01 902.384 1154.17 902.747 1154.3C903.11 1154.43 903.498 1154.54 903.911 1154.63L905.61 1155.04C906.434 1155.23 907.191 1155.47 907.881 1155.78C908.57 1156.09 909.167 1156.47 909.672 1156.91C910.177 1157.36 910.568 1157.89 910.845 1158.5C911.128 1159.11 911.272 1159.81 911.279 1160.6C911.272 1161.76 910.977 1162.76 910.392 1163.61C909.814 1164.45 908.977 1165.11 907.881 1165.58C906.791 1166.04 905.477 1166.27 903.938 1166.27C902.412 1166.27 901.082 1166.03 899.95 1165.57C898.823 1165.1 897.943 1164.41 897.309 1163.49C896.681 1162.57 896.352 1161.42 896.321 1160.06H900.19C900.233 1160.7 900.414 1161.23 900.735 1161.65C901.061 1162.07 901.495 1162.39 902.036 1162.6C902.584 1162.81 903.203 1162.92 903.892 1162.92C904.569 1162.92 905.157 1162.82 905.656 1162.62C906.16 1162.42 906.551 1162.15 906.828 1161.8C907.105 1161.45 907.244 1161.04 907.244 1160.59C907.244 1160.16 907.118 1159.81 906.865 1159.52C906.619 1159.23 906.256 1158.98 905.776 1158.78C905.302 1158.58 904.72 1158.39 904.031 1158.23L901.972 1157.71C900.378 1157.32 899.119 1156.71 898.195 1155.89C897.272 1155.07 896.814 1153.95 896.82 1152.56C896.814 1151.41 897.118 1150.41 897.734 1149.56C898.356 1148.7 899.208 1148.03 900.291 1147.55C901.375 1147.07 902.606 1146.83 903.985 1146.83C905.388 1146.83 906.613 1147.07 907.659 1147.55C908.712 1148.03 909.53 1148.7 910.115 1149.56C910.7 1150.41 911.002 1151.4 911.02 1152.53H907.188ZM913.248 1150.39V1147.09H928.777V1150.39H922.988V1166H919.037V1150.39H913.248ZM945.468 1147.09V1166H941.47V1150.89H941.36L937.029 1153.6V1150.05L941.71 1147.09H945.468Z" fill="black"/>
<rect x="832.5" y="1091.5" width="146" height="130" stroke="black"/>
<rect x="649.5" y="1093.5" width="142" height="126" fill="#A8A8A8"/>
<path d="M677.923 1150.39V1147.09H693.453V1150.39H687.664V1166H683.712V1150.39H677.923ZM696.011 1166V1147.09H708.752V1150.39H700.009V1154.89H708.097V1158.19H700.009V1162.7H708.789V1166H696.011ZM722.188 1152.53C722.115 1151.78 721.798 1151.21 721.237 1150.79C720.677 1150.38 719.917 1150.17 718.957 1150.17C718.304 1150.17 717.753 1150.27 717.304 1150.45C716.855 1150.63 716.51 1150.88 716.27 1151.2C716.036 1151.52 715.919 1151.88 715.919 1152.29C715.907 1152.63 715.978 1152.92 716.132 1153.18C716.292 1153.43 716.51 1153.65 716.787 1153.83C717.064 1154.01 717.384 1154.17 717.747 1154.3C718.11 1154.43 718.498 1154.54 718.911 1154.63L720.61 1155.04C721.434 1155.23 722.191 1155.47 722.881 1155.78C723.57 1156.09 724.167 1156.47 724.672 1156.91C725.177 1157.36 725.568 1157.89 725.845 1158.5C726.128 1159.11 726.272 1159.81 726.279 1160.6C726.272 1161.76 725.977 1162.76 725.392 1163.61C724.814 1164.45 723.977 1165.11 722.881 1165.58C721.791 1166.04 720.477 1166.27 718.938 1166.27C717.412 1166.27 716.082 1166.03 714.95 1165.57C713.823 1165.1 712.943 1164.41 712.309 1163.49C711.681 1162.57 711.352 1161.42 711.321 1160.06H715.19C715.233 1160.7 715.414 1161.23 715.735 1161.65C716.061 1162.07 716.495 1162.39 717.036 1162.6C717.584 1162.81 718.203 1162.92 718.892 1162.92C719.569 1162.92 720.157 1162.82 720.656 1162.62C721.16 1162.42 721.551 1162.15 721.828 1161.8C722.105 1161.45 722.244 1161.04 722.244 1160.59C722.244 1160.16 722.118 1159.81 721.865 1159.52C721.619 1159.23 721.256 1158.98 720.776 1158.78C720.302 1158.58 719.72 1158.39 719.031 1158.23L716.972 1157.71C715.378 1157.32 714.119 1156.71 713.195 1155.89C712.272 1155.07 711.814 1153.95 711.82 1152.56C711.814 1151.41 712.118 1150.41 712.734 1149.56C713.356 1148.7 714.208 1148.03 715.291 1147.55C716.375 1147.07 717.606 1146.83 718.985 1146.83C720.388 1146.83 721.613 1147.07 722.659 1147.55C723.712 1148.03 724.53 1148.7 725.115 1149.56C725.7 1150.41 726.002 1151.4 726.02 1152.53H722.188ZM728.248 1150.39V1147.09H743.777V1150.39H737.988V1166H734.037V1150.39H728.248ZM760.468 1147.09V1166H756.47V1150.89H756.36L752.029 1153.6V1150.05L756.71 1147.09H760.468Z" fill="#00FF80"/>
<rect x="649.5" y="1093.5" width="142" height="126" stroke="#FF00F5" stroke-width="5"/>
<rect x="464.5" y="1093.5" width="142" height="126" fill="#A8A8A8"/>
<path d="M492.923 1150.39V1147.09H508.453V1150.39H502.664V1166H498.712V1150.39H492.923ZM511.011 1166V1147.09H523.752V1150.39H515.009V1154.89H523.097V1158.19H515.009V1162.7H523.789V1166H511.011ZM537.188 1152.53C537.115 1151.78 536.798 1151.21 536.237 1150.79C535.677 1150.38 534.917 1150.17 533.957 1150.17C533.304 1150.17 532.753 1150.27 532.304 1150.45C531.855 1150.63 531.51 1150.88 531.27 1151.2C531.036 1151.52 530.919 1151.88 530.919 1152.29C530.907 1152.63 530.978 1152.92 531.132 1153.18C531.292 1153.43 531.51 1153.65 531.787 1153.83C532.064 1154.01 532.384 1154.17 532.747 1154.3C533.11 1154.43 533.498 1154.54 533.911 1154.63L535.61 1155.04C536.434 1155.23 537.191 1155.47 537.881 1155.78C538.57 1156.09 539.167 1156.47 539.672 1156.91C540.177 1157.36 540.568 1157.89 540.845 1158.5C541.128 1159.11 541.272 1159.81 541.279 1160.6C541.272 1161.76 540.977 1162.76 540.392 1163.61C539.814 1164.45 538.977 1165.11 537.881 1165.58C536.791 1166.04 535.477 1166.27 533.938 1166.27C532.412 1166.27 531.082 1166.03 529.95 1165.57C528.823 1165.1 527.943 1164.41 527.309 1163.49C526.681 1162.57 526.352 1161.42 526.321 1160.06H530.19C530.233 1160.7 530.414 1161.23 530.735 1161.65C531.061 1162.07 531.495 1162.39 532.036 1162.6C532.584 1162.81 533.203 1162.92 533.892 1162.92C534.569 1162.92 535.157 1162.82 535.656 1162.62C536.16 1162.42 536.551 1162.15 536.828 1161.8C537.105 1161.45 537.244 1161.04 537.244 1160.59C537.244 1160.16 537.118 1159.81 536.865 1159.52C536.619 1159.23 536.256 1158.98 535.776 1158.78C535.302 1158.58 534.72 1158.39 534.031 1158.23L531.972 1157.71C530.378 1157.32 529.119 1156.71 528.195 1155.89C527.272 1155.07 526.814 1153.95 526.82 1152.56C526.814 1151.41 527.118 1150.41 527.734 1149.56C528.356 1148.7 529.208 1148.03 530.291 1147.55C531.375 1147.07 532.606 1146.83 533.985 1146.83C535.388 1146.83 536.613 1147.07 537.659 1147.55C538.712 1148.03 539.53 1148.7 540.115 1149.56C540.7 1150.41 541.002 1151.4 541.02 1152.53H537.188ZM543.248 1150.39V1147.09H558.777V1150.39H552.988V1166H549.037V1150.39H543.248ZM575.468 1147.09V1166H571.47V1150.89H571.36L567.029 1153.6V1150.05L571.71 1147.09H575.468Z" fill="#0080FF"/>
<rect x="464.5" y="1093.5" width="142" height="126" stroke="#FF00F5" stroke-width="5"/>
<path d="M363.719 208.25V231H359.031V208.25H363.719ZM372.781 217.969V221.625H362.438V217.969H372.781ZM373.875 208.25V211.922H362.438V208.25H373.875ZM382.969 212.141L376.781 231H371.797L380.25 208.25H383.422L382.969 212.141ZM388.109 231L381.906 212.141L381.406 208.25H384.609L393.109 231H388.109ZM387.828 222.531V226.203H375.812V222.531H387.828ZM400.203 208.25V231H395.531V208.25H400.203ZM419.219 227.344V231H407.766V227.344H419.219ZM409.281 208.25V231H404.594V208.25H409.281Z" fill="#FF00F5"/>
<path d="M363.719 418.25V441H359.031V418.25H363.719ZM372.781 427.969V431.625H362.438V427.969H372.781ZM373.875 418.25V421.922H362.438V418.25H373.875ZM382.969 422.141L376.781 441H371.797L380.25 418.25H383.422L382.969 422.141ZM388.109 441L381.906 422.141L381.406 418.25H384.609L393.109 441H388.109ZM387.828 432.531V436.203H375.812V432.531H387.828ZM400.203 418.25V441H395.531V418.25H400.203ZM419.219 437.344V441H407.766V437.344H419.219ZM409.281 418.25V441H404.594V418.25H409.281Z" fill="#FF00F5"/>
<path d="M363.719 418.25V441H359.031V418.25H363.719ZM372.781 427.969V431.625H362.438V427.969H372.781ZM373.875 418.25V421.922H362.438V418.25H373.875ZM382.969 422.141L376.781 441H371.797L380.25 418.25H383.422L382.969 422.141ZM388.109 441L381.906 422.141L381.406 418.25H384.609L393.109 441H388.109ZM387.828 432.531V436.203H375.812V432.531H387.828ZM400.203 418.25V441H395.531V418.25H400.203ZM419.219 437.344V441H407.766V437.344H419.219ZM409.281 418.25V441H404.594V418.25H409.281Z" fill="#FF00F5"/>
<path d="M363.719 1060.25V1083H359.031V1060.25H363.719ZM372.781 1069.97V1073.62H362.438V1069.97H372.781ZM373.875 1060.25V1063.92H362.438V1060.25H373.875ZM382.969 1064.14L376.781 1083H371.797L380.25 1060.25H383.422L382.969 1064.14ZM388.109 1083L381.906 1064.14L381.406 1060.25H384.609L393.109 1083H388.109ZM387.828 1074.53V1078.2H375.812V1074.53H387.828ZM400.203 1060.25V1083H395.531V1060.25H400.203ZM419.219 1079.34V1083H407.766V1079.34H419.219ZM409.281 1060.25V1083H404.594V1060.25H409.281Z" fill="#FF00F5"/>
<path d="M552.719 1060.25V1083H548.031V1060.25H552.719ZM561.781 1069.97V1073.62H551.438V1069.97H561.781ZM562.875 1060.25V1063.92H551.438V1060.25H562.875ZM571.969 1064.14L565.781 1083H560.797L569.25 1060.25H572.422L571.969 1064.14ZM577.109 1083L570.906 1064.14L570.406 1060.25H573.609L582.109 1083H577.109ZM576.828 1074.53V1078.2H564.812V1074.53H576.828ZM589.203 1060.25V1083H584.531V1060.25H589.203ZM608.219 1079.34V1083H596.766V1079.34H608.219ZM598.281 1060.25V1083H593.594V1060.25H598.281Z" fill="#FF00F5"/>
<path d="M1107.72 1060.25V1083H1103.03V1060.25H1107.72ZM1116.78 1069.97V1073.62H1106.44V1069.97H1116.78ZM1117.88 1060.25V1063.92H1106.44V1060.25H1117.88ZM1126.97 1064.14L1120.78 1083H1115.8L1124.25 1060.25H1127.42L1126.97 1064.14ZM1132.11 1083L1125.91 1064.14L1125.41 1060.25H1128.61L1137.11 1083H1132.11ZM1131.83 1074.53V1078.2H1119.81V1074.53H1131.83ZM1144.2 1060.25V1083H1139.53V1060.25H1144.2ZM1163.22 1079.34V1083H1151.77V1079.34H1163.22ZM1153.28 1060.25V1083H1148.59V1060.25H1153.28Z" fill="#FF00F5"/>
<path d="M733.719 1060.25V1083H729.031V1060.25H733.719ZM742.781 1069.97V1073.62H732.438V1069.97H742.781ZM743.875 1060.25V1063.92H732.438V1060.25H743.875ZM752.969 1064.14L746.781 1083H741.797L750.25 1060.25H753.422L752.969 1064.14ZM758.109 1083L751.906 1064.14L751.406 1060.25H754.609L763.109 1083H758.109ZM757.828 1074.53V1078.2H745.812V1074.53H757.828ZM770.203 1060.25V1083H765.531V1060.25H770.203ZM789.219 1079.34V1083H777.766V1079.34H789.219ZM779.281 1060.25V1083H774.594V1060.25H779.281Z" fill="#FF00F5"/>
<path d="M727.719 1274.25V1297H723.031V1274.25H727.719ZM736.781 1283.97V1287.62H726.438V1283.97H736.781ZM737.875 1274.25V1277.92H726.438V1274.25H737.875ZM746.969 1278.14L740.781 1297H735.797L744.25 1274.25H747.422L746.969 1278.14ZM752.109 1297L745.906 1278.14L745.406 1274.25H748.609L757.109 1297H752.109ZM751.828 1288.53V1292.2H739.812V1288.53H751.828ZM764.203 1274.25V1297H759.531V1274.25H764.203ZM783.219 1293.34V1297H771.766V1293.34H783.219ZM773.281 1274.25V1297H768.594V1274.25H773.281Z" fill="#FF00F5"/>
<path d="M1102.72 1274.25V1297H1098.03V1274.25H1102.72ZM1111.78 1283.97V1287.62H1101.44V1283.97H1111.78ZM1112.88 1274.25V1277.92H1101.44V1274.25H1112.88ZM1121.97 1278.14L1115.78 1297H1110.8L1119.25 1274.25H1122.42L1121.97 1278.14ZM1127.11 1297L1120.91 1278.14L1120.41 1274.25H1123.61L1132.11 1297H1127.11ZM1126.83 1288.53V1292.2H1114.81V1288.53H1126.83ZM1139.2 1274.25V1297H1134.53V1274.25H1139.2ZM1158.22 1293.34V1297H1146.77V1293.34H1158.22ZM1148.28 1274.25V1297H1143.59V1274.25H1148.28Z" fill="#FF00F5"/>
<path d="M552.719 418.25V441H548.031V418.25H552.719ZM561.781 427.969V431.625H551.438V427.969H561.781ZM562.875 418.25V421.922H551.438V418.25H562.875ZM571.969 422.141L565.781 441H560.797L569.25 418.25H572.422L571.969 422.141ZM577.109 441L570.906 422.141L570.406 418.25H573.609L582.109 441H577.109ZM576.828 432.531V436.203H564.812V432.531H576.828ZM589.203 418.25V441H584.531V418.25H589.203ZM608.219 437.344V441H596.766V437.344H608.219ZM598.281 418.25V441H593.594V418.25H598.281Z" fill="#FF00F5"/>
<path d="M552.719 632.25V655H548.031V632.25H552.719ZM561.781 641.969V645.625H551.438V641.969H561.781ZM562.875 632.25V635.922H551.438V632.25H562.875ZM571.969 636.141L565.781 655H560.797L569.25 632.25H572.422L571.969 636.141ZM577.109 655L570.906 636.141L570.406 632.25H573.609L582.109 655H577.109ZM576.828 646.531V650.203H564.812V646.531H576.828ZM589.203 632.25V655H584.531V632.25H589.203ZM608.219 651.344V655H596.766V651.344H608.219ZM598.281 632.25V655H593.594V632.25H598.281Z" fill="#FF00F5"/>
<path d="M918.719 632.25V655H914.031V632.25H918.719ZM927.781 641.969V645.625H917.438V641.969H927.781ZM928.875 632.25V635.922H917.438V632.25H928.875ZM937.969 636.141L931.781 655H926.797L935.25 632.25H938.422L937.969 636.141ZM943.109 655L936.906 636.141L936.406 632.25H939.609L948.109 655H943.109ZM942.828 646.531V650.203H930.812V646.531H942.828ZM955.203 632.25V655H950.531V632.25H955.203ZM974.219 651.344V655H962.766V651.344H974.219ZM964.281 632.25V655H959.594V632.25H964.281Z" fill="#FF00F5"/>
<path d="M1102.72 632.25V655H1098.03V632.25H1102.72ZM1111.78 641.969V645.625H1101.44V641.969H1111.78ZM1112.88 632.25V635.922H1101.44V632.25H1112.88ZM1121.97 636.141L1115.78 655H1110.8L1119.25 632.25H1122.42L1121.97 636.141ZM1127.11 655L1120.91 636.141L1120.41 632.25H1123.61L1132.11 655H1127.11ZM1126.83 646.531V650.203H1114.81V646.531H1126.83ZM1139.2 632.25V655H1134.53V632.25H1139.2ZM1158.22 651.344V655H1146.77V651.344H1158.22ZM1148.28 632.25V655H1143.59V632.25H1148.28Z" fill="#FF00F5"/>
<path d="M911.719 418.25V441H907.031V418.25H911.719ZM920.781 427.969V431.625H910.438V427.969H920.781ZM921.875 418.25V421.922H910.438V418.25H921.875ZM930.969 422.141L924.781 441H919.797L928.25 418.25H931.422L930.969 422.141ZM936.109 441L929.906 422.141L929.406 418.25H932.609L941.109 441H936.109ZM935.828 432.531V436.203H923.812V432.531H935.828ZM948.203 418.25V441H943.531V418.25H948.203ZM967.219 437.344V441H955.766V437.344H967.219ZM957.281 418.25V441H952.594V418.25H957.281Z" fill="#FF00F5"/>
<path d="M911.719 208.25V231H907.031V208.25H911.719ZM920.781 217.969V221.625H910.438V217.969H920.781ZM921.875 208.25V211.922H910.438V208.25H921.875ZM930.969 212.141L924.781 231H919.797L928.25 208.25H931.422L930.969 212.141ZM936.109 231L929.906 212.141L929.406 208.25H932.609L941.109 231H936.109ZM935.828 222.531V226.203H923.812V222.531H935.828ZM948.203 208.25V231H943.531V208.25H948.203ZM967.219 227.344V231H955.766V227.344H967.219ZM957.281 208.25V231H952.594V208.25H957.281Z" fill="#FF00F5"/>
<path d="M550.281 211.141L544.094 230H539.109L547.562 207.25H550.734L550.281 211.141ZM555.422 230L549.219 211.141L548.719 207.25H551.922L560.422 230H555.422ZM555.141 221.531V225.203H543.125V221.531H555.141ZM571.781 211.141L565.594 230H560.609L569.062 207.25H572.234L571.781 211.141ZM576.922 230L570.719 211.141L570.219 207.25H573.422L581.922 230H576.922ZM576.641 221.531V225.203H564.625V221.531H576.641ZM598.469 217.328V221.25H582.875V217.328H598.469ZM592.812 211.156V227.719H588.547V211.156H592.812Z" fill="black"/>
<path d="M368.281 636.141L362.094 655H357.109L365.562 632.25H368.734L368.281 636.141ZM373.422 655L367.219 636.141L366.719 632.25H369.922L378.422 655H373.422ZM373.141 646.531V650.203H361.125V646.531H373.141ZM389.781 636.141L383.594 655H378.609L387.062 632.25H390.234L389.781 636.141ZM394.922 655L388.719 636.141L388.219 632.25H391.422L399.922 655H394.922ZM394.641 646.531V650.203H382.625V646.531H394.641ZM416.469 642.328V646.25H400.875V642.328H416.469ZM410.812 636.156V652.719H406.547V636.156H410.812Z" fill="black"/>
<path d="M368.281 1278.14L362.094 1297H357.109L365.562 1274.25H368.734L368.281 1278.14ZM373.422 1297L367.219 1278.14L366.719 1274.25H369.922L378.422 1297H373.422ZM373.141 1288.53V1292.2H361.125V1288.53H373.141ZM389.781 1278.14L383.594 1297H378.609L387.062 1274.25H390.234L389.781 1278.14ZM394.922 1297L388.719 1278.14L388.219 1274.25H391.422L399.922 1297H394.922ZM394.641 1288.53V1292.2H382.625V1288.53H394.641ZM416.469 1284.33V1288.25H400.875V1284.33H416.469ZM410.812 1278.16V1294.72H406.547V1278.16H410.812Z" fill="black"/>
<path d="M550.281 1278.14L544.094 1297H539.109L547.562 1274.25H550.734L550.281 1278.14ZM555.422 1297L549.219 1278.14L548.719 1274.25H551.922L560.422 1297H555.422ZM555.141 1288.53V1292.2H543.125V1288.53H555.141ZM571.781 1278.14L565.594 1297H560.609L569.062 1274.25H572.234L571.781 1278.14ZM576.922 1297L570.719 1278.14L570.219 1274.25H573.422L581.922 1297H576.922ZM576.641 1288.53V1292.2H564.625V1288.53H576.641ZM598.469 1284.33V1288.25H582.875V1284.33H598.469ZM592.812 1278.16V1294.72H588.547V1278.16H592.812Z" fill="black"/>
<path d="M1105.28 422.141L1099.09 441H1094.11L1102.56 418.25H1105.73L1105.28 422.141ZM1110.42 441L1104.22 422.141L1103.72 418.25H1106.92L1115.42 441H1110.42ZM1110.14 432.531V436.203H1098.12V432.531H1110.14ZM1126.78 422.141L1120.59 441H1115.61L1124.06 418.25H1127.23L1126.78 422.141ZM1131.92 441L1125.72 422.141L1125.22 418.25H1128.42L1136.92 441H1131.92ZM1131.64 432.531V436.203H1119.62V432.531H1131.64ZM1153.47 428.328V432.25H1137.88V428.328H1153.47ZM1147.81 422.156V438.719H1143.55V422.156H1147.81Z" fill="black"/>
<path d="M1105.28 211.141L1099.09 230H1094.11L1102.56 207.25H1105.73L1105.28 211.141ZM1110.42 230L1104.22 211.141L1103.72 207.25H1106.92L1115.42 230H1110.42ZM1110.14 221.531V225.203H1098.12V221.531H1110.14ZM1126.78 211.141L1120.59 230H1115.61L1124.06 207.25H1127.23L1126.78 211.141ZM1131.92 230L1125.72 211.141L1125.22 207.25H1128.42L1136.92 230H1131.92ZM1131.64 221.531V225.203H1119.62V221.531H1131.64ZM1153.47 217.328V221.25H1137.88V217.328H1153.47ZM1147.81 211.156V227.719H1143.55V211.156H1147.81Z" fill="black"/>
<path d="M757.281 211.141L751.094 230H746.109L754.562 207.25H757.734L757.281 211.141ZM762.422 230L756.219 211.141L755.719 207.25H758.922L767.422 230H762.422ZM762.141 221.531V225.203H750.125V221.531H762.141ZM778.781 211.141L772.594 230H767.609L776.062 207.25H779.234L778.781 211.141ZM783.922 230L777.719 211.141L777.219 207.25H780.422L788.922 230H783.922ZM783.641 221.531V225.203H771.625V221.531H783.641Z" fill="black"/>
<path d="M757.281 422.141L751.094 441H746.109L754.562 418.25H757.734L757.281 422.141ZM762.422 441L756.219 422.141L755.719 418.25H758.922L767.422 441H762.422ZM762.141 432.531V436.203H750.125V432.531H762.141ZM778.781 422.141L772.594 441H767.609L776.062 418.25H779.234L778.781 422.141ZM783.922 441L777.719 422.141L777.219 418.25H780.422L788.922 441H783.922ZM783.641 432.531V436.203H771.625V432.531H783.641Z" fill="black"/>
<path d="M387.281 850.141L381.094 869H376.109L384.562 846.25H387.734L387.281 850.141ZM392.422 869L386.219 850.141L385.719 846.25H388.922L397.422 869H392.422ZM392.141 860.531V864.203H380.125V860.531H392.141ZM408.781 850.141L402.594 869H397.609L406.062 846.25H409.234L408.781 850.141ZM413.922 869L407.719 850.141L407.219 846.25H410.422L418.922 869H413.922ZM413.641 860.531V864.203H401.625V860.531H413.641Z" fill="black"/>
<path d="M566.281 850.141L560.094 869H555.109L563.562 846.25H566.734L566.281 850.141ZM571.422 869L565.219 850.141L564.719 846.25H567.922L576.422 869H571.422ZM571.141 860.531V864.203H559.125V860.531H571.141ZM587.781 850.141L581.594 869H576.609L585.062 846.25H588.234L587.781 850.141ZM592.922 869L586.719 850.141L586.219 846.25H589.422L597.922 869H592.922ZM592.641 860.531V864.203H580.625V860.531H592.641Z" fill="black"/>
<path d="M733.281 636.141L727.094 655H722.109L730.562 632.25H733.734L733.281 636.141ZM738.422 655L732.219 636.141L731.719 632.25H734.922L743.422 655H738.422ZM738.141 646.531V650.203H726.125V646.531H738.141ZM754.781 636.141L748.594 655H743.609L752.062 632.25H755.234L754.781 636.141ZM759.922 655L753.719 636.141L753.219 632.25H756.422L764.922 655H759.922ZM759.641 646.531V650.203H747.625V646.531H759.641ZM776.281 636.141L770.094 655H765.109L773.562 632.25H776.734L776.281 636.141ZM781.422 655L775.219 636.141L774.719 632.25H777.922L786.422 655H781.422ZM781.141 646.531V650.203H769.125V646.531H781.141Z" fill="black"/>
<path d="M731.281 850.141L725.094 869H720.109L728.562 846.25H731.734L731.281 850.141ZM736.422 869L730.219 850.141L729.719 846.25H732.922L741.422 869H736.422ZM736.141 860.531V864.203H724.125V860.531H736.141ZM752.781 850.141L746.594 869H741.609L750.062 846.25H753.234L752.781 850.141ZM757.922 869L751.719 850.141L751.219 846.25H754.422L762.922 869H757.922ZM757.641 860.531V864.203H745.625V860.531H757.641ZM774.281 850.141L768.094 869H763.109L771.562 846.25H774.734L774.281 850.141ZM779.422 869L773.219 850.141L772.719 846.25H775.922L784.422 869H779.422ZM779.141 860.531V864.203H767.125V860.531H779.141Z" fill="black"/>
<path d="M918.281 850.141L912.094 869H907.109L915.562 846.25H918.734L918.281 850.141ZM923.422 869L917.219 850.141L916.719 846.25H919.922L928.422 869H923.422ZM923.141 860.531V864.203H911.125V860.531H923.141ZM939.781 850.141L933.594 869H928.609L937.062 846.25H940.234L939.781 850.141ZM944.922 869L938.719 850.141L938.219 846.25H941.422L949.922 869H944.922ZM944.641 860.531V864.203H932.625V860.531H944.641ZM961.281 850.141L955.094 869H950.109L958.562 846.25H961.734L961.281 850.141ZM966.422 869L960.219 850.141L959.719 846.25H962.922L971.422 869H966.422ZM966.141 860.531V864.203H954.125V860.531H966.141Z" fill="black"/>
<path d="M918.281 1278.14L912.094 1297H907.109L915.562 1274.25H918.734L918.281 1278.14ZM923.422 1297L917.219 1278.14L916.719 1274.25H919.922L928.422 1297H923.422ZM923.141 1288.53V1292.2H911.125V1288.53H923.141ZM939.781 1278.14L933.594 1297H928.609L937.062 1274.25H940.234L939.781 1278.14ZM944.922 1297L938.719 1278.14L938.219 1274.25H941.422L949.922 1297H944.922ZM944.641 1288.53V1292.2H932.625V1288.53H944.641ZM961.281 1278.14L955.094 1297H950.109L958.562 1274.25H961.734L961.281 1278.14ZM966.422 1297L960.219 1278.14L959.719 1274.25H962.922L971.422 1297H966.422ZM966.141 1288.53V1292.2H954.125V1288.53H966.141Z" fill="black"/>
<path d="M918.281 1064.14L912.094 1083H907.109L915.562 1060.25H918.734L918.281 1064.14ZM923.422 1083L917.219 1064.14L916.719 1060.25H919.922L928.422 1083H923.422ZM923.141 1074.53V1078.2H911.125V1074.53H923.141ZM939.781 1064.14L933.594 1083H928.609L937.062 1060.25H940.234L939.781 1064.14ZM944.922 1083L938.719 1064.14L938.219 1060.25H941.422L949.922 1083H944.922ZM944.641 1074.53V1078.2H932.625V1074.53H944.641ZM961.281 1064.14L955.094 1083H950.109L958.562 1060.25H961.734L961.281 1064.14ZM966.422 1083L960.219 1064.14L959.719 1060.25H962.922L971.422 1083H966.422ZM966.141 1074.53V1078.2H954.125V1074.53H966.141Z" fill="black"/>
<path d="M1101.28 850.141L1095.09 869H1090.11L1098.56 846.25H1101.73L1101.28 850.141ZM1106.42 869L1100.22 850.141L1099.72 846.25H1102.92L1111.42 869H1106.42ZM1106.14 860.531V864.203H1094.12V860.531H1106.14ZM1122.78 850.141L1116.59 869H1111.61L1120.06 846.25H1123.23L1122.78 850.141ZM1127.92 869L1121.72 850.141L1121.22 846.25H1124.42L1132.92 869H1127.92ZM1127.64 860.531V864.203H1115.62V860.531H1127.64ZM1144.28 850.141L1138.09 869H1133.11L1141.56 846.25H1144.73L1144.28 850.141ZM1149.42 869L1143.22 850.141L1142.72 846.25H1145.92L1154.42 869H1149.42ZM1149.14 860.531V864.203H1137.12V860.531H1149.14Z" fill="black"/>
</svg>
