<svg width="1440" height="1631" viewBox="0 0 1440 1631" fill="none" xmlns="http://www.w3.org/2000/svg">
<rect width="1440" height="1631" fill="white"/>
<rect x="1035.5" y="247.5" width="146" height="130" fill="#FF0000"/>
<path d="M1065.92 306.387V303.091H1081.45V306.387H1075.66V322H1071.71V306.387H1065.92ZM1084.01 322V303.091H1096.75V306.387H1088.01V310.893H1096.1V314.189H1088.01V318.704H1096.79V322H1084.01ZM1110.19 308.529C1110.11 307.784 1109.8 307.206 1109.24 306.793C1108.68 306.381 1107.92 306.175 1106.96 306.175C1106.3 306.175 1105.75 306.267 1105.3 306.452C1104.85 306.63 1104.51 306.879 1104.27 307.2C1104.04 307.52 1103.92 307.883 1103.92 308.289C1103.91 308.628 1103.98 308.923 1104.13 309.175C1104.29 309.428 1104.51 309.646 1104.79 309.831C1105.06 310.009 1105.38 310.166 1105.75 310.302C1106.11 310.431 1106.5 310.542 1106.91 310.634L1108.61 311.04C1109.43 311.225 1110.19 311.471 1110.88 311.779C1111.57 312.087 1112.17 312.465 1112.67 312.915C1113.18 313.364 1113.57 313.893 1113.84 314.503C1114.13 315.112 1114.27 315.811 1114.28 316.599C1114.27 317.756 1113.98 318.759 1113.39 319.609C1112.81 320.452 1111.98 321.107 1110.88 321.575C1109.79 322.037 1108.48 322.268 1106.94 322.268C1105.41 322.268 1104.08 322.034 1102.95 321.566C1101.82 321.098 1100.94 320.406 1100.31 319.489C1099.68 318.565 1099.35 317.424 1099.32 316.063H1103.19C1103.23 316.697 1103.41 317.227 1103.73 317.651C1104.06 318.07 1104.49 318.387 1105.04 318.602C1105.58 318.812 1106.2 318.916 1106.89 318.916C1107.57 318.916 1108.16 318.818 1108.66 318.621C1109.16 318.424 1109.55 318.15 1109.83 317.799C1110.11 317.448 1110.24 317.045 1110.24 316.589C1110.24 316.165 1110.12 315.808 1109.87 315.518C1109.62 315.229 1109.26 314.983 1108.78 314.78C1108.3 314.577 1107.72 314.392 1107.03 314.226L1104.97 313.709C1103.38 313.321 1102.12 312.715 1101.2 311.89C1100.27 311.065 1099.81 309.954 1099.82 308.557C1099.81 307.412 1100.12 306.412 1100.73 305.556C1101.36 304.701 1102.21 304.033 1103.29 303.553C1104.37 303.072 1105.61 302.832 1106.98 302.832C1108.39 302.832 1109.61 303.072 1110.66 303.553C1111.71 304.033 1112.53 304.701 1113.12 305.556C1113.7 306.412 1114 307.403 1114.02 308.529H1110.19ZM1116.25 306.387V303.091H1131.78V306.387H1125.99V322H1122.04V306.387H1116.25ZM1148.47 303.091V322H1144.47V306.886H1144.36L1140.03 309.6V306.055L1144.71 303.091H1148.47Z" fill="white"/>
<rect x="1035.5" y="247.5" width="146" height="130" stroke="black"/>
<rect x="665.5" y="247.5" width="146" height="130" fill="#FF0000"/>
<path d="M695.923 306.387V303.091H711.453V306.387H705.664V322H701.712V306.387H695.923ZM714.011 322V303.091H726.752V306.387H718.009V310.893H726.097V314.189H718.009V318.704H726.789V322H714.011ZM740.188 308.529C740.115 307.784 739.798 307.206 739.237 306.793C738.677 306.381 737.917 306.175 736.957 306.175C736.304 306.175 735.753 306.267 735.304 306.452C734.855 306.63 734.51 306.879 734.27 307.2C734.036 307.52 733.919 307.883 733.919 308.289C733.907 308.628 733.978 308.923 734.132 309.175C734.292 309.428 734.51 309.646 734.787 309.831C735.064 310.009 735.384 310.166 735.747 310.302C736.11 310.431 736.498 310.542 736.911 310.634L738.61 311.04C739.434 311.225 740.191 311.471 740.881 311.779C741.57 312.087 742.167 312.465 742.672 312.915C743.177 313.364 743.568 313.893 743.845 314.503C744.128 315.112 744.272 315.811 744.279 316.599C744.272 317.756 743.977 318.759 743.392 319.609C742.814 320.452 741.977 321.107 740.881 321.575C739.791 322.037 738.477 322.268 736.938 322.268C735.412 322.268 734.082 322.034 732.95 321.566C731.823 321.098 730.943 320.406 730.309 319.489C729.681 318.565 729.352 317.424 729.321 316.063H733.19C733.233 316.697 733.414 317.227 733.735 317.651C734.061 318.07 734.495 318.387 735.036 318.602C735.584 318.812 736.203 318.916 736.892 318.916C737.569 318.916 738.157 318.818 738.656 318.621C739.16 318.424 739.551 318.15 739.828 317.799C740.105 317.448 740.244 317.045 740.244 316.589C740.244 316.165 740.118 315.808 739.865 315.518C739.619 315.229 739.256 314.983 738.776 314.78C738.302 314.577 737.72 314.392 737.031 314.226L734.972 313.709C733.378 313.321 732.119 312.715 731.195 311.89C730.272 311.065 729.814 309.954 729.82 308.557C729.814 307.412 730.118 306.412 730.734 305.556C731.356 304.701 732.208 304.033 733.291 303.553C734.375 303.072 735.606 302.832 736.985 302.832C738.388 302.832 739.613 303.072 740.659 303.553C741.712 304.033 742.53 304.701 743.115 305.556C743.7 306.412 744.002 307.403 744.02 308.529H740.188ZM746.248 306.387V303.091H761.777V306.387H755.988V322H752.037V306.387H746.248ZM778.468 303.091V322H774.47V306.886H774.36L770.029 309.6V306.055L774.71 303.091H778.468Z" fill="black"/>
<rect x="665.5" y="247.5" width="146" height="130" stroke="black"/>
<rect x="480.5" y="247.5" width="146" height="130" fill="#FF0000"/>
<path d="M510.923 306.387V303.091H526.453V306.387H520.664V322H516.712V306.387H510.923ZM529.011 322V303.091H541.752V306.387H533.009V310.893H541.097V314.189H533.009V318.704H541.789V322H529.011ZM555.188 308.529C555.115 307.784 554.798 307.206 554.237 306.793C553.677 306.381 552.917 306.175 551.957 306.175C551.304 306.175 550.753 306.267 550.304 306.452C549.855 306.63 549.51 306.879 549.27 307.2C549.036 307.52 548.919 307.883 548.919 308.289C548.907 308.628 548.978 308.923 549.132 309.175C549.292 309.428 549.51 309.646 549.787 309.831C550.064 310.009 550.384 310.166 550.747 310.302C551.11 310.431 551.498 310.542 551.911 310.634L553.61 311.04C554.434 311.225 555.191 311.471 555.881 311.779C556.57 312.087 557.167 312.465 557.672 312.915C558.177 313.364 558.568 313.893 558.845 314.503C559.128 315.112 559.272 315.811 559.279 316.599C559.272 317.756 558.977 318.759 558.392 319.609C557.814 320.452 556.977 321.107 555.881 321.575C554.791 322.037 553.477 322.268 551.938 322.268C550.412 322.268 549.082 322.034 547.95 321.566C546.823 321.098 545.943 320.406 545.309 319.489C544.681 318.565 544.352 317.424 544.321 316.063H548.19C548.233 316.697 548.414 317.227 548.735 317.651C549.061 318.07 549.495 318.387 550.036 318.602C550.584 318.812 551.203 318.916 551.892 318.916C552.569 318.916 553.157 318.818 553.656 318.621C554.16 318.424 554.551 318.15 554.828 317.799C555.105 317.448 555.244 317.045 555.244 316.589C555.244 316.165 555.118 315.808 554.865 315.518C554.619 315.229 554.256 314.983 553.776 314.78C553.302 314.577 552.72 314.392 552.031 314.226L549.972 313.709C548.378 313.321 547.119 312.715 546.195 311.89C545.272 311.065 544.814 309.954 544.82 308.557C544.814 307.412 545.118 306.412 545.734 305.556C546.356 304.701 547.208 304.033 548.291 303.553C549.375 303.072 550.606 302.832 551.985 302.832C553.388 302.832 554.613 303.072 555.659 303.553C556.712 304.033 557.53 304.701 558.115 305.556C558.7 306.412 559.002 307.403 559.02 308.529H555.188ZM561.248 306.387V303.091H576.777V306.387H570.988V322H567.037V306.387H561.248ZM593.468 303.091V322H589.47V306.886H589.36L585.029 309.6V306.055L589.71 303.091H593.468Z" fill="#00FF80"/>
<rect x="480.5" y="247.5" width="146" height="130" stroke="black"/>
<rect x="295.5" y="675.5" width="146" height="130" fill="#00FF80"/>
<path d="M325.923 734.387V731.091H341.453V734.387H335.664V750H331.712V734.387H325.923ZM344.011 750V731.091H356.752V734.387H348.009V738.893H356.097V742.189H348.009V746.704H356.789V750H344.011ZM370.188 736.529C370.115 735.784 369.798 735.206 369.237 734.793C368.677 734.381 367.917 734.175 366.957 734.175C366.304 734.175 365.753 734.267 365.304 734.452C364.855 734.63 364.51 734.879 364.27 735.2C364.036 735.52 363.919 735.883 363.919 736.289C363.907 736.628 363.978 736.923 364.132 737.175C364.292 737.428 364.51 737.646 364.787 737.831C365.064 738.009 365.384 738.166 365.747 738.302C366.11 738.431 366.498 738.542 366.911 738.634L368.61 739.04C369.434 739.225 370.191 739.471 370.881 739.779C371.57 740.087 372.167 740.465 372.672 740.915C373.177 741.364 373.568 741.893 373.845 742.503C374.128 743.112 374.272 743.811 374.279 744.599C374.272 745.756 373.977 746.759 373.392 747.609C372.814 748.452 371.977 749.107 370.881 749.575C369.791 750.037 368.477 750.268 366.938 750.268C365.412 750.268 364.082 750.034 362.95 749.566C361.823 749.098 360.943 748.406 360.309 747.489C359.681 746.565 359.352 745.424 359.321 744.063H363.19C363.233 744.697 363.414 745.227 363.735 745.651C364.061 746.07 364.495 746.387 365.036 746.602C365.584 746.812 366.203 746.916 366.892 746.916C367.569 746.916 368.157 746.818 368.656 746.621C369.16 746.424 369.551 746.15 369.828 745.799C370.105 745.448 370.244 745.045 370.244 744.589C370.244 744.165 370.118 743.808 369.865 743.518C369.619 743.229 369.256 742.983 368.776 742.78C368.302 742.577 367.72 742.392 367.031 742.226L364.972 741.709C363.378 741.321 362.119 740.715 361.195 739.89C360.272 739.065 359.814 737.954 359.82 736.557C359.814 735.412 360.118 734.412 360.734 733.556C361.356 732.701 362.208 732.033 363.291 731.553C364.375 731.072 365.606 730.832 366.985 730.832C368.388 730.832 369.613 731.072 370.659 731.553C371.712 732.033 372.53 732.701 373.115 733.556C373.7 734.412 374.002 735.403 374.02 736.529H370.188ZM376.248 734.387V731.091H391.777V734.387H385.988V750H382.037V734.387H376.248ZM408.468 731.091V750H404.47V734.886H404.36L400.029 737.6V734.055L404.71 731.091H408.468Z" fill="#FF0000"/>
<rect x="295.5" y="675.5" width="146" height="130" stroke="black"/>
<rect x="665.5" y="675.5" width="146" height="130" fill="#00FF80"/>
<path d="M695.923 734.387V731.091H711.453V734.387H705.664V750H701.712V734.387H695.923ZM714.011 750V731.091H726.752V734.387H718.009V738.893H726.097V742.189H718.009V746.704H726.789V750H714.011ZM740.188 736.529C740.115 735.784 739.798 735.206 739.237 734.793C738.677 734.381 737.917 734.175 736.957 734.175C736.304 734.175 735.753 734.267 735.304 734.452C734.855 734.63 734.51 734.879 734.27 735.2C734.036 735.52 733.919 735.883 733.919 736.289C733.907 736.628 733.978 736.923 734.132 737.175C734.292 737.428 734.51 737.646 734.787 737.831C735.064 738.009 735.384 738.166 735.747 738.302C736.11 738.431 736.498 738.542 736.911 738.634L738.61 739.04C739.434 739.225 740.191 739.471 740.881 739.779C741.57 740.087 742.167 740.465 742.672 740.915C743.177 741.364 743.568 741.893 743.845 742.503C744.128 743.112 744.272 743.811 744.279 744.599C744.272 745.756 743.977 746.759 743.392 747.609C742.814 748.452 741.977 749.107 740.881 749.575C739.791 750.037 738.477 750.268 736.938 750.268C735.412 750.268 734.082 750.034 732.95 749.566C731.823 749.098 730.943 748.406 730.309 747.489C729.681 746.565 729.352 745.424 729.321 744.063H733.19C733.233 744.697 733.414 745.227 733.735 745.651C734.061 746.07 734.495 746.387 735.036 746.602C735.584 746.812 736.203 746.916 736.892 746.916C737.569 746.916 738.157 746.818 738.656 746.621C739.16 746.424 739.551 746.15 739.828 745.799C740.105 745.448 740.244 745.045 740.244 744.589C740.244 744.165 740.118 743.808 739.865 743.518C739.619 743.229 739.256 742.983 738.776 742.78C738.302 742.577 737.72 742.392 737.031 742.226L734.972 741.709C733.378 741.321 732.119 740.715 731.195 739.89C730.272 739.065 729.814 737.954 729.82 736.557C729.814 735.412 730.118 734.412 730.734 733.556C731.356 732.701 732.208 732.033 733.291 731.553C734.375 731.072 735.606 730.832 736.985 730.832C738.388 730.832 739.613 731.072 740.659 731.553C741.712 732.033 742.53 732.701 743.115 733.556C743.7 734.412 744.002 735.403 744.02 736.529H740.188ZM746.248 734.387V731.091H761.777V734.387H755.988V750H752.037V734.387H746.248ZM778.468 731.091V750H774.47V734.886H774.36L770.029 737.6V734.055L774.71 731.091H778.468Z" fill="black"/>
<rect x="665.5" y="675.5" width="146" height="130" stroke="black"/>
<rect x="1035.5" y="461.5" width="146" height="130" fill="#0080FF"/>
<path d="M1065.92 520.387V517.091H1081.45V520.387H1075.66V536H1071.71V520.387H1065.92ZM1084.01 536V517.091H1096.75V520.387H1088.01V524.893H1096.1V528.189H1088.01V532.704H1096.79V536H1084.01ZM1110.19 522.529C1110.11 521.784 1109.8 521.206 1109.24 520.793C1108.68 520.381 1107.92 520.175 1106.96 520.175C1106.3 520.175 1105.75 520.267 1105.3 520.452C1104.85 520.63 1104.51 520.879 1104.27 521.2C1104.04 521.52 1103.92 521.883 1103.92 522.289C1103.91 522.628 1103.98 522.923 1104.13 523.175C1104.29 523.428 1104.51 523.646 1104.79 523.831C1105.06 524.009 1105.38 524.166 1105.75 524.302C1106.11 524.431 1106.5 524.542 1106.91 524.634L1108.61 525.04C1109.43 525.225 1110.19 525.471 1110.88 525.779C1111.57 526.087 1112.17 526.465 1112.67 526.915C1113.18 527.364 1113.57 527.893 1113.84 528.503C1114.13 529.112 1114.27 529.811 1114.28 530.599C1114.27 531.756 1113.98 532.759 1113.39 533.609C1112.81 534.452 1111.98 535.107 1110.88 535.575C1109.79 536.037 1108.48 536.268 1106.94 536.268C1105.41 536.268 1104.08 536.034 1102.95 535.566C1101.82 535.098 1100.94 534.406 1100.31 533.489C1099.68 532.565 1099.35 531.424 1099.32 530.063H1103.19C1103.23 530.697 1103.41 531.227 1103.73 531.651C1104.06 532.07 1104.49 532.387 1105.04 532.602C1105.58 532.812 1106.2 532.916 1106.89 532.916C1107.57 532.916 1108.16 532.818 1108.66 532.621C1109.16 532.424 1109.55 532.15 1109.83 531.799C1110.11 531.448 1110.24 531.045 1110.24 530.589C1110.24 530.165 1110.12 529.808 1109.87 529.518C1109.62 529.229 1109.26 528.983 1108.78 528.78C1108.3 528.577 1107.72 528.392 1107.03 528.226L1104.97 527.709C1103.38 527.321 1102.12 526.715 1101.2 525.89C1100.27 525.065 1099.81 523.954 1099.82 522.557C1099.81 521.412 1100.12 520.412 1100.73 519.556C1101.36 518.701 1102.21 518.033 1103.29 517.553C1104.37 517.072 1105.61 516.832 1106.98 516.832C1108.39 516.832 1109.61 517.072 1110.66 517.553C1111.71 518.033 1112.53 518.701 1113.12 519.556C1113.7 520.412 1114 521.403 1114.02 522.529H1110.19ZM1116.25 520.387V517.091H1131.78V520.387H1125.99V536H1122.04V520.387H1116.25ZM1148.47 517.091V536H1144.47V520.886H1144.36L1140.03 523.6V520.055L1144.71 517.091H1148.47Z" fill="white"/>
<rect x="1035.5" y="461.5" width="146" height="130" stroke="black"/>
<rect x="665.5" y="461.5" width="146" height="130" fill="#0080FF"/>
<path d="M695.923 520.387V517.091H711.453V520.387H705.664V536H701.712V520.387H695.923ZM714.011 536V517.091H726.752V520.387H718.009V524.893H726.097V528.189H718.009V532.704H726.789V536H714.011ZM740.188 522.529C740.115 521.784 739.798 521.206 739.237 520.793C738.677 520.381 737.917 520.175 736.957 520.175C736.304 520.175 735.753 520.267 735.304 520.452C734.855 520.63 734.51 520.879 734.27 521.2C734.036 521.52 733.919 521.883 733.919 522.289C733.907 522.628 733.978 522.923 734.132 523.175C734.292 523.428 734.51 523.646 734.787 523.831C735.064 524.009 735.384 524.166 735.747 524.302C736.11 524.431 736.498 524.542 736.911 524.634L738.61 525.04C739.434 525.225 740.191 525.471 740.881 525.779C741.57 526.087 742.167 526.465 742.672 526.915C743.177 527.364 743.568 527.893 743.845 528.503C744.128 529.112 744.272 529.811 744.279 530.599C744.272 531.756 743.977 532.759 743.392 533.609C742.814 534.452 741.977 535.107 740.881 535.575C739.791 536.037 738.477 536.268 736.938 536.268C735.412 536.268 734.082 536.034 732.95 535.566C731.823 535.098 730.943 534.406 730.309 533.489C729.681 532.565 729.352 531.424 729.321 530.063H733.19C733.233 530.697 733.414 531.227 733.735 531.651C734.061 532.07 734.495 532.387 735.036 532.602C735.584 532.812 736.203 532.916 736.892 532.916C737.569 532.916 738.157 532.818 738.656 532.621C739.16 532.424 739.551 532.15 739.828 531.799C740.105 531.448 740.244 531.045 740.244 530.589C740.244 530.165 740.118 529.808 739.865 529.518C739.619 529.229 739.256 528.983 738.776 528.78C738.302 528.577 737.72 528.392 737.031 528.226L734.972 527.709C733.378 527.321 732.119 526.715 731.195 525.89C730.272 525.065 729.814 523.954 729.82 522.557C729.814 521.412 730.118 520.412 730.734 519.556C731.356 518.701 732.208 518.033 733.291 517.553C734.375 517.072 735.606 516.832 736.985 516.832C738.388 516.832 739.613 517.072 740.659 517.553C741.712 518.033 742.53 518.701 743.115 519.556C743.7 520.412 744.002 521.403 744.02 522.529H740.188ZM746.248 520.387V517.091H761.777V520.387H755.988V536H752.037V520.387H746.248ZM778.468 517.091V536H774.47V520.886H774.36L770.029 523.6V520.055L774.71 517.091H778.468Z" fill="black"/>
<rect x="665.5" y="461.5" width="146" height="130" stroke="black"/>
<rect x="295.5" y="889.5" width="146" height="130" fill="black"/>
<path d="M325.923 948.387V945.091H341.453V948.387H335.664V964H331.712V948.387H325.923ZM344.011 964V945.091H356.752V948.387H348.009V952.893H356.097V956.189H348.009V960.704H356.789V964H344.011ZM370.188 950.529C370.115 949.784 369.798 949.206 369.237 948.793C368.677 948.381 367.917 948.175 366.957 948.175C366.304 948.175 365.753 948.267 365.304 948.452C364.855 948.63 364.51 948.879 364.27 949.2C364.036 949.52 363.919 949.883 363.919 950.289C363.907 950.628 363.978 950.923 364.132 951.175C364.292 951.428 364.51 951.646 364.787 951.831C365.064 952.009 365.384 952.166 365.747 952.302C366.11 952.431 366.498 952.542 366.911 952.634L368.61 953.04C369.434 953.225 370.191 953.471 370.881 953.779C371.57 954.087 372.167 954.465 372.672 954.915C373.177 955.364 373.568 955.893 373.845 956.503C374.128 957.112 374.272 957.811 374.279 958.599C374.272 959.756 373.977 960.759 373.392 961.609C372.814 962.452 371.977 963.107 370.881 963.575C369.791 964.037 368.477 964.268 366.938 964.268C365.412 964.268 364.082 964.034 362.95 963.566C361.823 963.098 360.943 962.406 360.309 961.489C359.681 960.565 359.352 959.424 359.321 958.063H363.19C363.233 958.697 363.414 959.227 363.735 959.651C364.061 960.07 364.495 960.387 365.036 960.602C365.584 960.812 366.203 960.916 366.892 960.916C367.569 960.916 368.157 960.818 368.656 960.621C369.16 960.424 369.551 960.15 369.828 959.799C370.105 959.448 370.244 959.045 370.244 958.589C370.244 958.165 370.118 957.808 369.865 957.518C369.619 957.229 369.256 956.983 368.776 956.78C368.302 956.577 367.72 956.392 367.031 956.226L364.972 955.709C363.378 955.321 362.119 954.715 361.195 953.89C360.272 953.065 359.814 951.954 359.82 950.557C359.814 949.412 360.118 948.412 360.734 947.556C361.356 946.701 362.208 946.033 363.291 945.553C364.375 945.072 365.606 944.832 366.985 944.832C368.388 944.832 369.613 945.072 370.659 945.553C371.712 946.033 372.53 946.701 373.115 947.556C373.7 948.412 374.002 949.403 374.02 950.529H370.188ZM376.248 948.387V945.091H391.777V948.387H385.988V964H382.037V948.387H376.248ZM408.468 945.091V964H404.47V948.886H404.36L400.029 951.6V948.055L404.71 945.091H408.468Z" fill="#FF0000"/>
<rect x="295.5" y="889.5" width="146" height="130" stroke="black"/>
<rect x="1035.5" y="889.5" width="146" height="130" fill="black"/>
<path d="M1065.92 948.387V945.091H1081.45V948.387H1075.66V964H1071.71V948.387H1065.92ZM1084.01 964V945.091H1096.75V948.387H1088.01V952.893H1096.1V956.189H1088.01V960.704H1096.79V964H1084.01ZM1110.19 950.529C1110.11 949.784 1109.8 949.206 1109.24 948.793C1108.68 948.381 1107.92 948.175 1106.96 948.175C1106.3 948.175 1105.75 948.267 1105.3 948.452C1104.85 948.63 1104.51 948.879 1104.27 949.2C1104.04 949.52 1103.92 949.883 1103.92 950.289C1103.91 950.628 1103.98 950.923 1104.13 951.175C1104.29 951.428 1104.51 951.646 1104.79 951.831C1105.06 952.009 1105.38 952.166 1105.75 952.302C1106.11 952.431 1106.5 952.542 1106.91 952.634L1108.61 953.04C1109.43 953.225 1110.19 953.471 1110.88 953.779C1111.57 954.087 1112.17 954.465 1112.67 954.915C1113.18 955.364 1113.57 955.893 1113.84 956.503C1114.13 957.112 1114.27 957.811 1114.28 958.599C1114.27 959.756 1113.98 960.759 1113.39 961.609C1112.81 962.452 1111.98 963.107 1110.88 963.575C1109.79 964.037 1108.48 964.268 1106.94 964.268C1105.41 964.268 1104.08 964.034 1102.95 963.566C1101.82 963.098 1100.94 962.406 1100.31 961.489C1099.68 960.565 1099.35 959.424 1099.32 958.063H1103.19C1103.23 958.697 1103.41 959.227 1103.73 959.651C1104.06 960.07 1104.49 960.387 1105.04 960.602C1105.58 960.812 1106.2 960.916 1106.89 960.916C1107.57 960.916 1108.16 960.818 1108.66 960.621C1109.16 960.424 1109.55 960.15 1109.83 959.799C1110.11 959.448 1110.24 959.045 1110.24 958.589C1110.24 958.165 1110.12 957.808 1109.87 957.518C1109.62 957.229 1109.26 956.983 1108.78 956.78C1108.3 956.577 1107.72 956.392 1107.03 956.226L1104.97 955.709C1103.38 955.321 1102.12 954.715 1101.2 953.89C1100.27 953.065 1099.81 951.954 1099.82 950.557C1099.81 949.412 1100.12 948.412 1100.73 947.556C1101.36 946.701 1102.21 946.033 1103.29 945.553C1104.37 945.072 1105.61 944.832 1106.98 944.832C1108.39 944.832 1109.61 945.072 1110.66 945.553C1111.71 946.033 1112.53 946.701 1113.12 947.556C1113.7 948.412 1114 949.403 1114.02 950.529H1110.19ZM1116.25 948.387V945.091H1131.78V948.387H1125.99V964H1122.04V948.387H1116.25ZM1148.47 945.091V964H1144.47V948.886H1144.36L1140.03 951.6V948.055L1144.71 945.091H1148.47Z" fill="white"/>
<rect x="1035.5" y="889.5" width="146" height="130" stroke="black"/>
<rect x="850.5" y="889.5" width="146" height="130" fill="black"/>
<path d="M880.923 948.387V945.091H896.453V948.387H890.664V964H886.712V948.387H880.923ZM899.011 964V945.091H911.752V948.387H903.009V952.893H911.097V956.189H903.009V960.704H911.789V964H899.011ZM925.188 950.529C925.115 949.784 924.798 949.206 924.237 948.793C923.677 948.381 922.917 948.175 921.957 948.175C921.304 948.175 920.753 948.267 920.304 948.452C919.855 948.63 919.51 948.879 919.27 949.2C919.036 949.52 918.919 949.883 918.919 950.289C918.907 950.628 918.978 950.923 919.132 951.175C919.292 951.428 919.51 951.646 919.787 951.831C920.064 952.009 920.384 952.166 920.747 952.302C921.11 952.431 921.498 952.542 921.911 952.634L923.61 953.04C924.434 953.225 925.191 953.471 925.881 953.779C926.57 954.087 927.167 954.465 927.672 954.915C928.177 955.364 928.568 955.893 928.845 956.503C929.128 957.112 929.272 957.811 929.279 958.599C929.272 959.756 928.977 960.759 928.392 961.609C927.814 962.452 926.977 963.107 925.881 963.575C924.791 964.037 923.477 964.268 921.938 964.268C920.412 964.268 919.082 964.034 917.95 963.566C916.823 963.098 915.943 962.406 915.309 961.489C914.681 960.565 914.352 959.424 914.321 958.063H918.19C918.233 958.697 918.414 959.227 918.735 959.651C919.061 960.07 919.495 960.387 920.036 960.602C920.584 960.812 921.203 960.916 921.892 960.916C922.569 960.916 923.157 960.818 923.656 960.621C924.16 960.424 924.551 960.15 924.828 959.799C925.105 959.448 925.244 959.045 925.244 958.589C925.244 958.165 925.118 957.808 924.865 957.518C924.619 957.229 924.256 956.983 923.776 956.78C923.302 956.577 922.72 956.392 922.031 956.226L919.972 955.709C918.378 955.321 917.119 954.715 916.195 953.89C915.272 953.065 914.814 951.954 914.82 950.557C914.814 949.412 915.118 948.412 915.734 947.556C916.356 946.701 917.208 946.033 918.291 945.553C919.375 945.072 920.606 944.832 921.985 944.832C923.388 944.832 924.613 945.072 925.659 945.553C926.712 946.033 927.53 946.701 928.115 947.556C928.7 948.412 929.002 949.403 929.02 950.529H925.188ZM931.248 948.387V945.091H946.777V948.387H940.988V964H937.037V948.387H931.248ZM963.468 945.091V964H959.47V948.886H959.36L955.029 951.6V948.055L959.71 945.091H963.468Z" fill="#A8A8A8"/>
<rect x="850.5" y="889.5" width="146" height="130" stroke="black"/>
<rect x="665.5" y="889.5" width="146" height="130" fill="black"/>
<path d="M695.923 948.387V945.091H711.453V948.387H705.664V964H701.712V948.387H695.923ZM714.011 964V945.091H726.752V948.387H718.009V952.893H726.097V956.189H718.009V960.704H726.789V964H714.011ZM740.188 950.529C740.115 949.784 739.798 949.206 739.237 948.793C738.677 948.381 737.917 948.175 736.957 948.175C736.304 948.175 735.753 948.267 735.304 948.452C734.855 948.63 734.51 948.879 734.27 949.2C734.036 949.52 733.919 949.883 733.919 950.289C733.907 950.628 733.978 950.923 734.132 951.175C734.292 951.428 734.51 951.646 734.787 951.831C735.064 952.009 735.384 952.166 735.747 952.302C736.11 952.431 736.498 952.542 736.911 952.634L738.61 953.04C739.434 953.225 740.191 953.471 740.881 953.779C741.57 954.087 742.167 954.465 742.672 954.915C743.177 955.364 743.568 955.893 743.845 956.503C744.128 957.112 744.272 957.811 744.279 958.599C744.272 959.756 743.977 960.759 743.392 961.609C742.814 962.452 741.977 963.107 740.881 963.575C739.791 964.037 738.477 964.268 736.938 964.268C735.412 964.268 734.082 964.034 732.95 963.566C731.823 963.098 730.943 962.406 730.309 961.489C729.681 960.565 729.352 959.424 729.321 958.063H733.19C733.233 958.697 733.414 959.227 733.735 959.651C734.061 960.07 734.495 960.387 735.036 960.602C735.584 960.812 736.203 960.916 736.892 960.916C737.569 960.916 738.157 960.818 738.656 960.621C739.16 960.424 739.551 960.15 739.828 959.799C740.105 959.448 740.244 959.045 740.244 958.589C740.244 958.165 740.118 957.808 739.865 957.518C739.619 957.229 739.256 956.983 738.776 956.78C738.302 956.577 737.72 956.392 737.031 956.226L734.972 955.709C733.378 955.321 732.119 954.715 731.195 953.89C730.272 953.065 729.814 951.954 729.82 950.557C729.814 949.412 730.118 948.412 730.734 947.556C731.356 946.701 732.208 946.033 733.291 945.553C734.375 945.072 735.606 944.832 736.985 944.832C738.388 944.832 739.613 945.072 740.659 945.553C741.712 946.033 742.53 946.701 743.115 947.556C743.7 948.412 744.002 949.403 744.02 950.529H740.188ZM746.248 948.387V945.091H761.777V948.387H755.988V964H752.037V948.387H746.248ZM778.468 945.091V964H774.47V948.886H774.36L770.029 951.6V948.055L774.71 945.091H778.468Z" fill="#00FF80"/>
<rect x="665.5" y="889.5" width="146" height="130" stroke="black"/>
<rect x="480.5" y="889.5" width="146" height="130" fill="black"/>
<path d="M510.923 948.387V945.091H526.453V948.387H520.664V964H516.712V948.387H510.923ZM529.011 964V945.091H541.752V948.387H533.009V952.893H541.097V956.189H533.009V960.704H541.789V964H529.011ZM555.188 950.529C555.115 949.784 554.798 949.206 554.237 948.793C553.677 948.381 552.917 948.175 551.957 948.175C551.304 948.175 550.753 948.267 550.304 948.452C549.855 948.63 549.51 948.879 549.27 949.2C549.036 949.52 548.919 949.883 548.919 950.289C548.907 950.628 548.978 950.923 549.132 951.175C549.292 951.428 549.51 951.646 549.787 951.831C550.064 952.009 550.384 952.166 550.747 952.302C551.11 952.431 551.498 952.542 551.911 952.634L553.61 953.04C554.434 953.225 555.191 953.471 555.881 953.779C556.57 954.087 557.167 954.465 557.672 954.915C558.177 955.364 558.568 955.893 558.845 956.503C559.128 957.112 559.272 957.811 559.279 958.599C559.272 959.756 558.977 960.759 558.392 961.609C557.814 962.452 556.977 963.107 555.881 963.575C554.791 964.037 553.477 964.268 551.938 964.268C550.412 964.268 549.082 964.034 547.95 963.566C546.823 963.098 545.943 962.406 545.309 961.489C544.681 960.565 544.352 959.424 544.321 958.063H548.19C548.233 958.697 548.414 959.227 548.735 959.651C549.061 960.07 549.495 960.387 550.036 960.602C550.584 960.812 551.203 960.916 551.892 960.916C552.569 960.916 553.157 960.818 553.656 960.621C554.16 960.424 554.551 960.15 554.828 959.799C555.105 959.448 555.244 959.045 555.244 958.589C555.244 958.165 555.118 957.808 554.865 957.518C554.619 957.229 554.256 956.983 553.776 956.78C553.302 956.577 552.72 956.392 552.031 956.226L549.972 955.709C548.378 955.321 547.119 954.715 546.195 953.89C545.272 953.065 544.814 951.954 544.82 950.557C544.814 949.412 545.118 948.412 545.734 947.556C546.356 946.701 547.208 946.033 548.291 945.553C549.375 945.072 550.606 944.832 551.985 944.832C553.388 944.832 554.613 945.072 555.659 945.553C556.712 946.033 557.53 946.701 558.115 947.556C558.7 948.412 559.002 949.403 559.02 950.529H555.188ZM561.248 948.387V945.091H576.777V948.387H570.988V964H567.037V948.387H561.248ZM593.468 945.091V964H589.47V948.886H589.36L585.029 951.6V948.055L589.71 945.091H593.468Z" fill="#0080FF"/>
<rect x="480.5" y="889.5" width="146" height="130" stroke="black"/>
<rect x="295.5" y="1317.5" width="146" height="130" fill="white"/>
<path d="M325.923 1376.39V1373.09H341.453V1376.39H335.664V1392H331.712V1376.39H325.923ZM344.011 1392V1373.09H356.752V1376.39H348.009V1380.89H356.097V1384.19H348.009V1388.7H356.789V1392H344.011ZM370.188 1378.53C370.115 1377.78 369.798 1377.21 369.237 1376.79C368.677 1376.38 367.917 1376.17 366.957 1376.17C366.304 1376.17 365.753 1376.27 365.304 1376.45C364.855 1376.63 364.51 1376.88 364.27 1377.2C364.036 1377.52 363.919 1377.88 363.919 1378.29C363.907 1378.63 363.978 1378.92 364.132 1379.18C364.292 1379.43 364.51 1379.65 364.787 1379.83C365.064 1380.01 365.384 1380.17 365.747 1380.3C366.11 1380.43 366.498 1380.54 366.911 1380.63L368.61 1381.04C369.434 1381.23 370.191 1381.47 370.881 1381.78C371.57 1382.09 372.167 1382.47 372.672 1382.91C373.177 1383.36 373.568 1383.89 373.845 1384.5C374.128 1385.11 374.272 1385.81 374.279 1386.6C374.272 1387.76 373.977 1388.76 373.392 1389.61C372.814 1390.45 371.977 1391.11 370.881 1391.58C369.791 1392.04 368.477 1392.27 366.938 1392.27C365.412 1392.27 364.082 1392.03 362.95 1391.57C361.823 1391.1 360.943 1390.41 360.309 1389.49C359.681 1388.57 359.352 1387.42 359.321 1386.06H363.19C363.233 1386.7 363.414 1387.23 363.735 1387.65C364.061 1388.07 364.495 1388.39 365.036 1388.6C365.584 1388.81 366.203 1388.92 366.892 1388.92C367.569 1388.92 368.157 1388.82 368.656 1388.62C369.16 1388.42 369.551 1388.15 369.828 1387.8C370.105 1387.45 370.244 1387.04 370.244 1386.59C370.244 1386.16 370.118 1385.81 369.865 1385.52C369.619 1385.23 369.256 1384.98 368.776 1384.78C368.302 1384.58 367.72 1384.39 367.031 1384.23L364.972 1383.71C363.378 1383.32 362.119 1382.71 361.195 1381.89C360.272 1381.07 359.814 1379.95 359.82 1378.56C359.814 1377.41 360.118 1376.41 360.734 1375.56C361.356 1374.7 362.208 1374.03 363.291 1373.55C364.375 1373.07 365.606 1372.83 366.985 1372.83C368.388 1372.83 369.613 1373.07 370.659 1373.55C371.712 1374.03 372.53 1374.7 373.115 1375.56C373.7 1376.41 374.002 1377.4 374.02 1378.53H370.188ZM376.248 1376.39V1373.09H391.777V1376.39H385.988V1392H382.037V1376.39H376.248ZM408.468 1373.09V1392H404.47V1376.89H404.36L400.029 1379.6V1376.05L404.71 1373.09H408.468Z" fill="#FF0000"/>
<rect x="295.5" y="1317.5" width="146" height="130" stroke="black"/>
<rect x="850.5" y="1317.5" width="146" height="130" fill="white"/>
<path d="M880.923 1376.39V1373.09H896.453V1376.39H890.664V1392H886.712V1376.39H880.923ZM899.011 1392V1373.09H911.752V1376.39H903.009V1380.89H911.097V1384.19H903.009V1388.7H911.789V1392H899.011ZM925.188 1378.53C925.115 1377.78 924.798 1377.21 924.237 1376.79C923.677 1376.38 922.917 1376.17 921.957 1376.17C921.304 1376.17 920.753 1376.27 920.304 1376.45C919.855 1376.63 919.51 1376.88 919.27 1377.2C919.036 1377.52 918.919 1377.88 918.919 1378.29C918.907 1378.63 918.978 1378.92 919.132 1379.18C919.292 1379.43 919.51 1379.65 919.787 1379.83C920.064 1380.01 920.384 1380.17 920.747 1380.3C921.11 1380.43 921.498 1380.54 921.911 1380.63L923.61 1381.04C924.434 1381.23 925.191 1381.47 925.881 1381.78C926.57 1382.09 927.167 1382.47 927.672 1382.91C928.177 1383.36 928.568 1383.89 928.845 1384.5C929.128 1385.11 929.272 1385.81 929.279 1386.6C929.272 1387.76 928.977 1388.76 928.392 1389.61C927.814 1390.45 926.977 1391.11 925.881 1391.58C924.791 1392.04 923.477 1392.27 921.938 1392.27C920.412 1392.27 919.082 1392.03 917.95 1391.57C916.823 1391.1 915.943 1390.41 915.309 1389.49C914.681 1388.57 914.352 1387.42 914.321 1386.06H918.19C918.233 1386.7 918.414 1387.23 918.735 1387.65C919.061 1388.07 919.495 1388.39 920.036 1388.6C920.584 1388.81 921.203 1388.92 921.892 1388.92C922.569 1388.92 923.157 1388.82 923.656 1388.62C924.16 1388.42 924.551 1388.15 924.828 1387.8C925.105 1387.45 925.244 1387.04 925.244 1386.59C925.244 1386.16 925.118 1385.81 924.865 1385.52C924.619 1385.23 924.256 1384.98 923.776 1384.78C923.302 1384.58 922.72 1384.39 922.031 1384.23L919.972 1383.71C918.378 1383.32 917.119 1382.71 916.195 1381.89C915.272 1381.07 914.814 1379.95 914.82 1378.56C914.814 1377.41 915.118 1376.41 915.734 1375.56C916.356 1374.7 917.208 1374.03 918.291 1373.55C919.375 1373.07 920.606 1372.83 921.985 1372.83C923.388 1372.83 924.613 1373.07 925.659 1373.55C926.712 1374.03 927.53 1374.7 928.115 1375.56C928.7 1376.41 929.002 1377.4 929.02 1378.53H925.188ZM931.248 1376.39V1373.09H946.777V1376.39H940.988V1392H937.037V1376.39H931.248ZM963.468 1373.09V1392H959.47V1376.89H959.36L955.029 1379.6V1376.05L959.71 1373.09H963.468Z" fill="black"/>
<rect x="850.5" y="1317.5" width="146" height="130" stroke="black"/>
<rect x="480.5" y="1317.5" width="146" height="130" fill="white"/>
<path d="M510.923 1376.39V1373.09H526.453V1376.39H520.664V1392H516.712V1376.39H510.923ZM529.011 1392V1373.09H541.752V1376.39H533.009V1380.89H541.097V1384.19H533.009V1388.7H541.789V1392H529.011ZM555.188 1378.53C555.115 1377.78 554.798 1377.21 554.237 1376.79C553.677 1376.38 552.917 1376.17 551.957 1376.17C551.304 1376.17 550.753 1376.27 550.304 1376.45C549.855 1376.63 549.51 1376.88 549.27 1377.2C549.036 1377.52 548.919 1377.88 548.919 1378.29C548.907 1378.63 548.978 1378.92 549.132 1379.18C549.292 1379.43 549.51 1379.65 549.787 1379.83C550.064 1380.01 550.384 1380.17 550.747 1380.3C551.11 1380.43 551.498 1380.54 551.911 1380.63L553.61 1381.04C554.434 1381.23 555.191 1381.47 555.881 1381.78C556.57 1382.09 557.167 1382.47 557.672 1382.91C558.177 1383.36 558.568 1383.89 558.845 1384.5C559.128 1385.11 559.272 1385.81 559.279 1386.6C559.272 1387.76 558.977 1388.76 558.392 1389.61C557.814 1390.45 556.977 1391.11 555.881 1391.58C554.791 1392.04 553.477 1392.27 551.938 1392.27C550.412 1392.27 549.082 1392.03 547.95 1391.57C546.823 1391.1 545.943 1390.41 545.309 1389.49C544.681 1388.57 544.352 1387.42 544.321 1386.06H548.19C548.233 1386.7 548.414 1387.23 548.735 1387.65C549.061 1388.07 549.495 1388.39 550.036 1388.6C550.584 1388.81 551.203 1388.92 551.892 1388.92C552.569 1388.92 553.157 1388.82 553.656 1388.62C554.16 1388.42 554.551 1388.15 554.828 1387.8C555.105 1387.45 555.244 1387.04 555.244 1386.59C555.244 1386.16 555.118 1385.81 554.865 1385.52C554.619 1385.23 554.256 1384.98 553.776 1384.78C553.302 1384.58 552.72 1384.39 552.031 1384.23L549.972 1383.71C548.378 1383.32 547.119 1382.71 546.195 1381.89C545.272 1381.07 544.814 1379.95 544.82 1378.56C544.814 1377.41 545.118 1376.41 545.734 1375.56C546.356 1374.7 547.208 1374.03 548.291 1373.55C549.375 1373.07 550.606 1372.83 551.985 1372.83C553.388 1372.83 554.613 1373.07 555.659 1373.55C556.712 1374.03 557.53 1374.7 558.115 1375.56C558.7 1376.41 559.002 1377.4 559.02 1378.53H555.188ZM561.248 1376.39V1373.09H576.777V1376.39H570.988V1392H567.037V1376.39H561.248ZM593.468 1373.09V1392H589.47V1376.89H589.36L585.029 1379.6V1376.05L589.71 1373.09H593.468Z" fill="#0080FF"/>
<rect x="480.5" y="1317.5" width="146" height="130" stroke="black"/>
<rect x="850.5" y="1103.5" width="146" height="130" fill="#A8A8A8"/>
<path d="M880.923 1162.39V1159.09H896.453V1162.39H890.664V1178H886.712V1162.39H880.923ZM899.011 1178V1159.09H911.752V1162.39H903.009V1166.89H911.097V1170.19H903.009V1174.7H911.789V1178H899.011ZM925.188 1164.53C925.115 1163.78 924.798 1163.21 924.237 1162.79C923.677 1162.38 922.917 1162.17 921.957 1162.17C921.304 1162.17 920.753 1162.27 920.304 1162.45C919.855 1162.63 919.51 1162.88 919.27 1163.2C919.036 1163.52 918.919 1163.88 918.919 1164.29C918.907 1164.63 918.978 1164.92 919.132 1165.18C919.292 1165.43 919.51 1165.65 919.787 1165.83C920.064 1166.01 920.384 1166.17 920.747 1166.3C921.11 1166.43 921.498 1166.54 921.911 1166.63L923.61 1167.04C924.434 1167.23 925.191 1167.47 925.881 1167.78C926.57 1168.09 927.167 1168.47 927.672 1168.91C928.177 1169.36 928.568 1169.89 928.845 1170.5C929.128 1171.11 929.272 1171.81 929.279 1172.6C929.272 1173.76 928.977 1174.76 928.392 1175.61C927.814 1176.45 926.977 1177.11 925.881 1177.58C924.791 1178.04 923.477 1178.27 921.938 1178.27C920.412 1178.27 919.082 1178.03 917.95 1177.57C916.823 1177.1 915.943 1176.41 915.309 1175.49C914.681 1174.57 914.352 1173.42 914.321 1172.06H918.19C918.233 1172.7 918.414 1173.23 918.735 1173.65C919.061 1174.07 919.495 1174.39 920.036 1174.6C920.584 1174.81 921.203 1174.92 921.892 1174.92C922.569 1174.92 923.157 1174.82 923.656 1174.62C924.16 1174.42 924.551 1174.15 924.828 1173.8C925.105 1173.45 925.244 1173.04 925.244 1172.59C925.244 1172.16 925.118 1171.81 924.865 1171.52C924.619 1171.23 924.256 1170.98 923.776 1170.78C923.302 1170.58 922.72 1170.39 922.031 1170.23L919.972 1169.71C918.378 1169.32 917.119 1168.71 916.195 1167.89C915.272 1167.07 914.814 1165.95 914.82 1164.56C914.814 1163.41 915.118 1162.41 915.734 1161.56C916.356 1160.7 917.208 1160.03 918.291 1159.55C919.375 1159.07 920.606 1158.83 921.985 1158.83C923.388 1158.83 924.613 1159.07 925.659 1159.55C926.712 1160.03 927.53 1160.7 928.115 1161.56C928.7 1162.41 929.002 1163.4 929.02 1164.53H925.188ZM931.248 1162.39V1159.09H946.777V1162.39H940.988V1178H937.037V1162.39H931.248ZM963.468 1159.09V1178H959.47V1162.89H959.36L955.029 1165.6V1162.05L959.71 1159.09H963.468Z" fill="black"/>
<rect x="850.5" y="1103.5" width="146" height="130" stroke="black"/>
<path d="M568.281 223.141L562.094 242H557.109L565.562 219.25H568.734L568.281 223.141ZM573.422 242L567.219 223.141L566.719 219.25H569.922L578.422 242H573.422ZM573.141 233.531V237.203H561.125V233.531H573.141ZM589.781 223.141L583.594 242H578.609L587.062 219.25H590.234L589.781 223.141ZM594.922 242L588.719 223.141L588.219 219.25H591.422L599.922 242H594.922ZM594.641 233.531V237.203H582.625V233.531H594.641ZM616.469 229.328V233.25H600.875V229.328H616.469ZM610.812 223.156V239.719H606.547V223.156H610.812Z" fill="black"/>
<path d="M386.281 648.141L380.094 667H375.109L383.562 644.25H386.734L386.281 648.141ZM391.422 667L385.219 648.141L384.719 644.25H387.922L396.422 667H391.422ZM391.141 658.531V662.203H379.125V658.531H391.141ZM407.781 648.141L401.594 667H396.609L405.062 644.25H408.234L407.781 648.141ZM412.922 667L406.719 648.141L406.219 644.25H409.422L417.922 667H412.922ZM412.641 658.531V662.203H400.625V658.531H412.641ZM434.469 654.328V658.25H418.875V654.328H434.469ZM428.812 648.156V664.719H424.547V648.156H428.812Z" fill="black"/>
<path d="M386.281 1290.14L380.094 1309H375.109L383.562 1286.25H386.734L386.281 1290.14ZM391.422 1309L385.219 1290.14L384.719 1286.25H387.922L396.422 1309H391.422ZM391.141 1300.53V1304.2H379.125V1300.53H391.141ZM407.781 1290.14L401.594 1309H396.609L405.062 1286.25H408.234L407.781 1290.14ZM412.922 1309L406.719 1290.14L406.219 1286.25H409.422L417.922 1309H412.922ZM412.641 1300.53V1304.2H400.625V1300.53H412.641ZM434.469 1296.33V1300.25H418.875V1296.33H434.469ZM428.812 1290.16V1306.72H424.547V1290.16H428.812Z" fill="black"/>
<path d="M568.281 1290.14L562.094 1309H557.109L565.562 1286.25H568.734L568.281 1290.14ZM573.422 1309L567.219 1290.14L566.719 1286.25H569.922L578.422 1309H573.422ZM573.141 1300.53V1304.2H561.125V1300.53H573.141ZM589.781 1290.14L583.594 1309H578.609L587.062 1286.25H590.234L589.781 1290.14ZM594.922 1309L588.719 1290.14L588.219 1286.25H591.422L599.922 1309H594.922ZM594.641 1300.53V1304.2H582.625V1300.53H594.641ZM616.469 1296.33V1300.25H600.875V1296.33H616.469ZM610.812 1290.16V1306.72H606.547V1290.16H610.812Z" fill="black"/>
<path d="M1123.28 434.141L1117.09 453H1112.11L1120.56 430.25H1123.73L1123.28 434.141ZM1128.42 453L1122.22 434.141L1121.72 430.25H1124.92L1133.42 453H1128.42ZM1128.14 444.531V448.203H1116.12V444.531H1128.14ZM1144.78 434.141L1138.59 453H1133.61L1142.06 430.25H1145.23L1144.78 434.141ZM1149.92 453L1143.72 434.141L1143.22 430.25H1146.42L1154.92 453H1149.92ZM1149.64 444.531V448.203H1137.62V444.531H1149.64ZM1171.47 440.328V444.25H1155.88V440.328H1171.47ZM1165.81 434.156V450.719H1161.55V434.156H1165.81Z" fill="black"/>
<path d="M1123.28 223.141L1117.09 242H1112.11L1120.56 219.25H1123.73L1123.28 223.141ZM1128.42 242L1122.22 223.141L1121.72 219.25H1124.92L1133.42 242H1128.42ZM1128.14 233.531V237.203H1116.12V233.531H1128.14ZM1144.78 223.141L1138.59 242H1133.61L1142.06 219.25H1145.23L1144.78 223.141ZM1149.92 242L1143.72 223.141L1143.22 219.25H1146.42L1154.92 242H1149.92ZM1149.64 233.531V237.203H1137.62V233.531H1149.64ZM1171.47 229.328V233.25H1155.88V229.328H1171.47ZM1165.81 223.156V239.719H1161.55V223.156H1165.81Z" fill="black"/>
<path d="M775.281 223.141L769.094 242H764.109L772.562 219.25H775.734L775.281 223.141ZM780.422 242L774.219 223.141L773.719 219.25H776.922L785.422 242H780.422ZM780.141 233.531V237.203H768.125V233.531H780.141ZM796.781 223.141L790.594 242H785.609L794.062 219.25H797.234L796.781 223.141ZM801.922 242L795.719 223.141L795.219 219.25H798.422L806.922 242H801.922ZM801.641 233.531V237.203H789.625V233.531H801.641Z" fill="black"/>
<path d="M775.281 434.141L769.094 453H764.109L772.562 430.25H775.734L775.281 434.141ZM780.422 453L774.219 434.141L773.719 430.25H776.922L785.422 453H780.422ZM780.141 444.531V448.203H768.125V444.531H780.141ZM796.781 434.141L790.594 453H785.609L794.062 430.25H797.234L796.781 434.141ZM801.922 453L795.719 434.141L795.219 430.25H798.422L806.922 453H801.922ZM801.641 444.531V448.203H789.625V444.531H801.641Z" fill="black"/>
<path d="M405.281 862.141L399.094 881H394.109L402.562 858.25H405.734L405.281 862.141ZM410.422 881L404.219 862.141L403.719 858.25H406.922L415.422 881H410.422ZM410.141 872.531V876.203H398.125V872.531H410.141ZM426.781 862.141L420.594 881H415.609L424.062 858.25H427.234L426.781 862.141ZM431.922 881L425.719 862.141L425.219 858.25H428.422L436.922 881H431.922ZM431.641 872.531V876.203H419.625V872.531H431.641Z" fill="black"/>
<path d="M584.281 862.141L578.094 881H573.109L581.562 858.25H584.734L584.281 862.141ZM589.422 881L583.219 862.141L582.719 858.25H585.922L594.422 881H589.422ZM589.141 872.531V876.203H577.125V872.531H589.141ZM605.781 862.141L599.594 881H594.609L603.062 858.25H606.234L605.781 862.141ZM610.922 881L604.719 862.141L604.219 858.25H607.422L615.922 881H610.922ZM610.641 872.531V876.203H598.625V872.531H610.641Z" fill="black"/>
<path d="M751.281 648.141L745.094 667H740.109L748.562 644.25H751.734L751.281 648.141ZM756.422 667L750.219 648.141L749.719 644.25H752.922L761.422 667H756.422ZM756.141 658.531V662.203H744.125V658.531H756.141ZM772.781 648.141L766.594 667H761.609L770.062 644.25H773.234L772.781 648.141ZM777.922 667L771.719 648.141L771.219 644.25H774.422L782.922 667H777.922ZM777.641 658.531V662.203H765.625V658.531H777.641ZM794.281 648.141L788.094 667H783.109L791.562 644.25H794.734L794.281 648.141ZM799.422 667L793.219 648.141L792.719 644.25H795.922L804.422 667H799.422ZM799.141 658.531V662.203H787.125V658.531H799.141Z" fill="black"/>
<path d="M749.281 862.141L743.094 881H738.109L746.562 858.25H749.734L749.281 862.141ZM754.422 881L748.219 862.141L747.719 858.25H750.922L759.422 881H754.422ZM754.141 872.531V876.203H742.125V872.531H754.141ZM770.781 862.141L764.594 881H759.609L768.062 858.25H771.234L770.781 862.141ZM775.922 881L769.719 862.141L769.219 858.25H772.422L780.922 881H775.922ZM775.641 872.531V876.203H763.625V872.531H775.641ZM792.281 862.141L786.094 881H781.109L789.562 858.25H792.734L792.281 862.141ZM797.422 881L791.219 862.141L790.719 858.25H793.922L802.422 881H797.422ZM797.141 872.531V876.203H785.125V872.531H797.141Z" fill="black"/>
<path d="M936.281 862.141L930.094 881H925.109L933.562 858.25H936.734L936.281 862.141ZM941.422 881L935.219 862.141L934.719 858.25H937.922L946.422 881H941.422ZM941.141 872.531V876.203H929.125V872.531H941.141ZM957.781 862.141L951.594 881H946.609L955.062 858.25H958.234L957.781 862.141ZM962.922 881L956.719 862.141L956.219 858.25H959.422L967.922 881H962.922ZM962.641 872.531V876.203H950.625V872.531H962.641ZM979.281 862.141L973.094 881H968.109L976.562 858.25H979.734L979.281 862.141ZM984.422 881L978.219 862.141L977.719 858.25H980.922L989.422 881H984.422ZM984.141 872.531V876.203H972.125V872.531H984.141Z" fill="black"/>
<path d="M936.281 1290.14L930.094 1309H925.109L933.562 1286.25H936.734L936.281 1290.14ZM941.422 1309L935.219 1290.14L934.719 1286.25H937.922L946.422 1309H941.422ZM941.141 1300.53V1304.2H929.125V1300.53H941.141ZM957.781 1290.14L951.594 1309H946.609L955.062 1286.25H958.234L957.781 1290.14ZM962.922 1309L956.719 1290.14L956.219 1286.25H959.422L967.922 1309H962.922ZM962.641 1300.53V1304.2H950.625V1300.53H962.641ZM979.281 1290.14L973.094 1309H968.109L976.562 1286.25H979.734L979.281 1290.14ZM984.422 1309L978.219 1290.14L977.719 1286.25H980.922L989.422 1309H984.422ZM984.141 1300.53V1304.2H972.125V1300.53H984.141Z" fill="black"/>
<path d="M1119.28 862.141L1113.09 881H1108.11L1116.56 858.25H1119.73L1119.28 862.141ZM1124.42 881L1118.22 862.141L1117.72 858.25H1120.92L1129.42 881H1124.42ZM1124.14 872.531V876.203H1112.12V872.531H1124.14ZM1140.78 862.141L1134.59 881H1129.61L1138.06 858.25H1141.23L1140.78 862.141ZM1145.92 881L1139.72 862.141L1139.22 858.25H1142.42L1150.92 881H1145.92ZM1145.64 872.531V876.203H1133.62V872.531H1145.64ZM1162.28 862.141L1156.09 881H1151.11L1159.56 858.25H1162.73L1162.28 862.141ZM1167.42 881L1161.22 862.141L1160.72 858.25H1163.92L1172.42 881H1167.42ZM1167.14 872.531V876.203H1155.12V872.531H1167.14Z" fill="black"/>
<path d="M936.281 1076.14L930.094 1095H925.109L933.562 1072.25H936.734L936.281 1076.14ZM941.422 1095L935.219 1076.14L934.719 1072.25H937.922L946.422 1095H941.422ZM941.141 1086.53V1090.2H929.125V1086.53H941.141ZM957.781 1076.14L951.594 1095H946.609L955.062 1072.25H958.234L957.781 1076.14ZM962.922 1095L956.719 1076.14L956.219 1072.25H959.422L967.922 1095H962.922ZM962.641 1086.53V1090.2H950.625V1086.53H962.641ZM979.281 1076.14L973.094 1095H968.109L976.562 1072.25H979.734L979.281 1076.14ZM984.422 1095L978.219 1076.14L977.719 1072.25H980.922L989.422 1095H984.422ZM984.141 1086.53V1090.2H972.125V1086.53H984.141Z" fill="black"/>
</svg>
